<svg xmlns="http://www.w3.org/2000/svg" viewBox="0 0 32 32" shape-rendering="crispEdges">
  <rect width="32" height="32" fill="#fff"/>
  <path fill="#000" d="M14 3h4v1h-4zM13 4h1v1h-1zM18 4h1v1h-1zM11 5h2v1h-2zM19 5h2v1h-2zM8 6h3v1H8zM21 6h3v1h-3zM7 7h1v1H7zM24 7h1v1h-1zM6 8h1v3H6zM25 8h1v3h-1zM7 11h1v1H7zM10 11h1v2h10v-2h1v2h1v7h-1v2h-1v2h-1v1h-1v1h-7v-1h-1v-1h-1v-2H9v-2H8v-7h1v-2h1zM12 10h1v1h-1zM14 9h1v4h-1zM17 9h1v1h-1zM18 10h1v1h-1zM13 11h1v1h-1zM18 11h1v1h-1zM12 12h1v1h-1zM19 12h1v1h-1zM10 14v1h12v-1zM10 16v4h1v-2h1v-1h5v-1zM18 17v1h1v1h1v1h-1v1h-1v1h4v-6h-2v1zM13 19h2v2h-2zM15 23h1v1h2v-1h1v-1h-1v1h-2v-1h-1zM8 20h1v2H8zM23 20h1v2h-1z"/>
</svg>
