<svg xmlns="http://www.w3.org/2000/svg" width="1254" height="1254" viewBox="0 0 1254 1254" shape-rendering="crispEdges" aria-labelledby="title desc" role="img">
  <title id="title">favicon_code_chef_mascot_matched</title>
  <desc id="desc">SVG traced directly from the original PNG so it matches the source icon.</desc>
  <rect width="100%" height="100%" fill="#fff"/>
  <path d="M559 132h136v1H559zM559 133h136v1H559zM559 134h136v1H559zM559 135h136v1H559zM559 136h136v1H559zM559 137h136v1H559zM559 138h136v1H559zM559 139h136v1H559zM559 140h136v1H559zM559 141h136v1H559zM559 142h136v1H559zM559 143h136v1H559zM559 144h136v1H559zM559 145h136v1H559zM559 146h136v1H559zM559 147h136v1H559zM559 148h136v1H559zM559 149h136v1H559zM559 150h136v1H559zM559 151h136v1H559zM559 152h136v1H559zM559 153h136v1H559zM559 154h136v1H559zM559 155h136v1H559zM559 156h136v1H559zM559 157h136v1H559zM559 158h136v1H559zM559 159h136v1H559zM559 160h136v1H559zM559 161h136v1H559zM559 162h136v1H559zM559 163h136v1H559zM558 164h138v1H558zM510 165h235v1H510zM510 166h234v1H510zM510 167h234v1H510zM510 168h53v1H510zM692 168h53v1H692zM510 169h53v1H510zM692 169h53v1H692zM510 170h53v1H510zM692 170h53v1H692zM510 171h53v1H510zM692 171h53v1H692zM510 172h53v1H510zM692 172h53v1H692zM510 173h53v1H510zM692 173h53v1H692zM510 174h53v1H510zM692 174h53v1H692zM510 175h53v1H510zM692 175h53v1H692zM510 176h53v1H510zM692 176h53v1H692zM510 177h53v1H510zM692 177h53v1H692zM510 178h53v1H510zM692 178h53v1H692zM510 179h53v1H510zM692 179h53v1H692zM510 180h53v1H510zM692 180h53v1H692zM510 181h53v1H510zM692 181h53v1H692zM510 182h53v1H510zM692 182h53v1H692zM510 183h53v1H510zM692 183h53v1H692zM510 184h53v1H510zM692 184h53v1H692zM510 185h53v1H510zM692 185h53v1H692zM510 186h53v1H510zM692 186h53v1H692zM510 187h53v1H510zM692 187h53v1H692zM510 188h53v1H510zM692 188h53v1H692zM510 189h53v1H510zM692 189h53v1H692zM510 190h53v1H510zM692 190h53v1H692zM510 191h53v1H510zM692 191h53v1H692zM510 192h53v1H510zM692 192h53v1H692zM510 193h53v1H510zM692 193h53v1H692zM510 194h53v1H510zM692 194h53v1H692zM510 195h53v1H510zM692 195h53v1H692zM510 196h53v1H510zM692 196h53v1H692zM510 197h53v1H510zM692 197h53v1H692zM509 198h54v1H509zM692 198h53v1H692zM429 199h133v1H429zM692 199h133v1H692zM429 200h103v1H429zM722 200h103v1H722zM429 201h103v1H429zM722 201h103v1H722zM430 202h102v1H430zM722 202h103v1H722zM430 203h102v1H430zM722 203h103v1H722zM430 204h102v1H430zM722 204h103v1H722zM430 205h102v1H430zM722 205h103v1H722zM430 206h102v1H430zM722 206h103v1H722zM430 207h102v1H430zM722 207h103v1H722zM430 208h102v1H430zM722 208h103v1H722zM430 209h102v1H430zM722 209h103v1H722zM430 210h102v1H430zM722 210h103v1H722zM430 211h102v1H430zM722 211h103v1H722zM430 212h102v1H430zM722 212h103v1H722zM430 213h102v1H430zM722 213h103v1H722zM430 214h102v1H430zM722 214h103v1H722zM430 215h102v1H430zM722 215h103v1H722zM430 216h102v1H430zM722 216h103v1H722zM430 217h102v1H430zM722 217h103v1H722zM429 218h103v1H429zM722 218h103v1H722zM429 219h103v1H429zM722 219h103v1H722zM429 220h103v1H429zM722 220h103v1H722zM429 221h103v1H429zM722 221h103v1H722zM429 222h103v1H429zM722 222h103v1H722zM429 223h103v1H429zM722 223h103v1H722zM429 224h103v1H429zM722 224h103v1H722zM430 225h102v1H430zM722 225h103v1H722zM430 226h102v1H430zM722 226h103v1H722zM430 227h102v1H430zM722 227h103v1H722zM430 228h102v1H430zM722 228h103v1H722zM429 229h103v1H429zM722 229h103v1H722zM430 230h102v1H430zM722 230h103v1H722zM429 231h103v1H429zM722 231h103v1H722zM430 232h102v1H430zM722 232h103v1H722zM429 233h103v1H429zM722 233h103v1H722zM320 234h141v1H320zM793 234h141v1H793zM320 235h141v1H320zM793 235h141v1H793zM320 236h141v1H320zM793 236h141v1H793zM320 237h141v1H320zM793 237h141v1H793zM320 238h141v1H320zM793 238h141v1H793zM320 239h141v1H320zM793 239h141v1H793zM320 240h141v1H320zM793 240h141v1H793zM320 241h141v1H320zM793 241h141v1H793zM320 242h141v1H320zM793 242h141v1H793zM320 243h141v1H320zM793 243h141v1H793zM320 244h141v1H320zM793 244h141v1H793zM320 245h141v1H320zM793 245h141v1H793zM320 246h141v1H320zM793 246h141v1H793zM320 247h141v1H320zM793 247h141v1H793zM320 248h141v1H320zM793 248h141v1H793zM320 249h141v1H320zM793 249h141v1H793zM320 250h141v1H320zM793 250h141v1H793zM320 251h141v1H320zM793 251h141v1H793zM320 252h141v1H320zM793 252h141v1H793zM320 253h141v1H320zM793 253h141v1H793zM320 254h141v1H320zM793 254h141v1H793zM320 255h141v1H320zM793 255h141v1H793zM320 256h141v1H320zM793 256h141v1H793zM320 257h141v1H320zM793 257h141v1H793zM320 258h141v1H320zM793 258h141v1H793zM320 259h141v1H320zM793 259h141v1H793zM320 260h141v1H320zM793 260h141v1H793zM320 261h141v1H320zM793 261h141v1H793zM320 262h141v1H320zM793 262h141v1H793zM320 263h141v1H320zM793 263h141v1H793zM320 264h141v1H320zM793 264h141v1H793zM320 265h141v1H320zM793 265h141v1H793zM320 266h141v1H320zM793 266h141v1H793zM320 267h141v1H320zM793 267h141v1H793zM320 268h141v1H320zM793 268h141v1H793zM320 269h141v1H320zM793 269h141v1H793zM320 270h141v1H320zM793 270h141v1H793zM284 271h177v1H284zM793 271h177v1H793zM283 272h178v1H283zM794 272h177v1H794zM283 273h38v1H283zM933 273h38v1H933zM283 274h38v1H283zM933 274h38v1H933zM283 275h38v1H283zM933 275h38v1H933zM283 276h38v1H283zM933 276h38v1H933zM283 277h38v1H283zM933 277h38v1H933zM283 278h38v1H283zM933 278h38v1H933zM283 279h38v1H283zM933 279h38v1H933zM283 280h38v1H283zM933 280h38v1H933zM283 281h38v1H283zM933 281h38v1H933zM283 282h38v1H283zM933 282h38v1H933zM283 283h38v1H283zM933 283h38v1H933zM283 284h38v1H283zM933 284h38v1H933zM283 285h38v1H283zM933 285h38v1H933zM283 286h38v1H283zM933 286h38v1H933zM283 287h38v1H283zM933 287h38v1H933zM283 288h38v1H283zM933 288h38v1H933zM283 289h38v1H283zM933 289h38v1H933zM283 290h38v1H283zM933 290h38v1H933zM283 291h38v1H283zM933 291h38v1H933zM283 292h38v1H283zM933 292h38v1H933zM283 293h38v1H283zM933 293h38v1H933zM283 294h38v1H283zM933 294h38v1H933zM283 295h38v1H283zM933 295h38v1H933zM283 296h38v1H283zM933 296h38v1H933zM283 297h38v1H283zM933 297h38v1H933zM283 298h38v1H283zM933 298h38v1H933zM283 299h38v1H283zM933 299h38v1H933zM283 300h38v1H283zM933 300h38v1H933zM283 301h38v1H283zM933 301h38v1H933zM283 302h38v1H283zM933 302h38v1H933zM283 303h38v1H283zM933 303h38v1H933zM283 304h38v1H283zM933 304h38v1H933zM283 305h38v1H283zM933 305h38v1H933zM283 306h38v1H283zM933 306h38v1H933zM283 307h38v1H283zM933 307h38v1H933zM283 308h38v1H283zM933 308h38v1H933zM283 309h38v1H283zM933 309h38v1H933zM250 310h71v1H250zM933 310h71v1H933zM250 311h34v1H250zM970 311h34v1H970zM250 312h34v1H250zM970 312h34v1H970zM250 313h34v1H250zM970 313h34v1H970zM250 314h34v1H250zM970 314h34v1H970zM250 315h34v1H250zM970 315h34v1H970zM250 316h34v1H250zM970 316h34v1H970zM250 317h34v1H250zM970 317h34v1H970zM250 318h34v1H250zM970 318h34v1H970zM250 319h34v1H250zM970 319h34v1H970zM250 320h34v1H250zM970 320h34v1H970zM250 321h34v1H250zM970 321h34v1H970zM250 322h34v1H250zM970 322h34v1H970zM250 323h34v1H250zM970 323h34v1H970zM250 324h34v1H250zM970 324h34v1H970zM250 325h34v1H250zM970 325h34v1H970zM250 326h34v1H250zM970 326h34v1H970zM250 327h34v1H250zM970 327h34v1H970zM250 328h34v1H250zM970 328h34v1H970zM250 329h34v1H250zM970 329h34v1H970zM250 330h34v1H250zM970 330h34v1H970zM250 331h34v1H250zM970 331h34v1H970zM250 332h34v1H250zM970 332h34v1H970zM250 333h34v1H250zM970 333h34v1H970zM250 334h34v1H250zM970 334h34v1H970zM250 335h34v1H250zM970 335h34v1H970zM250 336h34v1H250zM970 336h34v1H970zM250 337h34v1H250zM970 337h34v1H970zM250 338h34v1H250zM970 338h34v1H970zM250 339h34v1H250zM970 339h34v1H970zM250 340h34v1H250zM970 340h34v1H970zM250 341h34v1H250zM970 341h34v1H970zM250 342h34v1H250zM970 342h34v1H970zM250 343h34v1H250zM970 343h34v1H970zM250 344h34v1H250zM970 344h34v1H970zM250 345h34v1H250zM970 345h34v1H970zM250 346h34v1H250zM970 346h34v1H970zM250 347h34v1H250zM970 347h34v1H970zM250 348h34v1H250zM970 348h34v1H970zM250 349h34v1H250zM970 349h34v1H970zM250 350h34v1H250zM970 350h34v1H970zM250 351h34v1H250zM970 351h34v1H970zM250 352h34v1H250zM970 352h34v1H970zM250 353h34v1H250zM970 353h34v1H970zM250 354h34v1H250zM970 354h34v1H970zM250 355h34v1H250zM970 355h34v1H970zM250 356h34v1H250zM970 356h34v1H970zM250 357h34v1H250zM970 357h34v1H970zM250 358h34v1H250zM970 358h34v1H970zM250 359h34v1H250zM970 359h34v1H970zM250 360h34v1H250zM970 360h34v1H970zM250 361h34v1H250zM970 361h34v1H970zM250 362h34v1H250zM637 362h28v1H637zM970 362h34v1H970zM250 363h34v1H250zM637 363h28v1H637zM970 363h34v1H970zM250 364h34v1H250zM637 364h28v1H637zM970 364h34v1H970zM250 365h34v1H250zM637 365h28v1H637zM970 365h34v1H970zM250 366h34v1H250zM637 366h28v1H637zM970 366h34v1H970zM250 367h34v1H250zM637 367h28v1H637zM970 367h34v1H970zM250 368h34v1H250zM637 368h28v1H637zM970 368h34v1H970zM250 369h34v1H250zM637 369h28v1H637zM970 369h34v1H970zM250 370h34v1H250zM637 370h28v1H637zM970 370h34v1H970zM250 371h34v1H250zM637 371h28v1H637zM970 371h34v1H970zM250 372h34v1H250zM637 372h28v1H637zM970 372h34v1H970zM250 373h34v1H250zM637 373h28v1H637zM970 373h34v1H970zM250 374h34v1H250zM553 374h26v1H553zM637 374h28v1H637zM970 374h34v1H970zM250 375h34v1H250zM553 375h26v1H553zM637 375h28v1H637zM970 375h34v1H970zM250 376h34v1H250zM553 376h26v1H553zM637 376h28v1H637zM689 376h25v1H689zM970 376h34v1H970zM250 377h34v1H250zM553 377h26v1H553zM637 377h28v1H637zM689 377h25v1H689zM970 377h34v1H970zM250 378h34v1H250zM553 378h26v1H553zM637 378h28v1H637zM689 378h25v1H689zM970 378h34v1H970zM250 379h34v1H250zM553 379h26v1H553zM637 379h28v1H637zM689 379h25v1H689zM970 379h34v1H970zM250 380h34v1H250zM553 380h26v1H553zM637 380h28v1H637zM689 380h25v1H689zM970 380h34v1H970zM250 381h34v1H250zM553 381h26v1H553zM637 381h28v1H637zM689 381h25v1H689zM970 381h34v1H970zM250 382h34v1H250zM553 382h26v1H553zM637 382h28v1H637zM689 382h25v1H689zM970 382h34v1H970zM250 383h34v1H250zM553 383h26v1H553zM637 383h28v1H637zM689 383h25v1H689zM970 383h34v1H970zM250 384h34v1H250zM553 384h26v1H553zM637 384h28v1H637zM689 384h25v1H689zM970 384h34v1H970zM250 385h34v1H250zM553 385h26v1H553zM637 385h28v1H637zM689 385h25v1H689zM970 385h34v1H970zM250 386h34v1H250zM553 386h26v1H553zM637 386h28v1H637zM689 386h25v1H689zM970 386h34v1H970zM250 387h34v1H250zM553 387h26v1H553zM637 387h28v1H637zM689 387h25v1H689zM970 387h34v1H970zM250 388h34v1H250zM553 388h26v1H553zM637 388h28v1H637zM689 388h25v1H689zM970 388h34v1H970zM250 389h34v1H250zM553 389h26v1H553zM637 389h28v1H637zM689 389h25v1H689zM970 389h34v1H970zM250 390h34v1H250zM553 390h26v1H553zM637 390h28v1H637zM689 390h25v1H689zM970 390h34v1H970zM250 391h34v1H250zM553 391h26v1H553zM637 391h28v1H637zM689 391h25v1H689zM970 391h34v1H970zM250 392h34v1H250zM553 392h26v1H553zM637 392h28v1H637zM689 392h25v1H689zM970 392h34v1H970zM250 393h34v1H250zM553 393h26v1H553zM637 393h28v1H637zM689 393h25v1H689zM970 393h34v1H970zM250 394h34v1H250zM553 394h26v1H553zM637 394h28v1H637zM689 394h25v1H689zM970 394h34v1H970zM250 395h34v1H250zM553 395h26v1H553zM637 395h28v1H637zM689 395h25v1H689zM970 395h34v1H970zM250 396h34v1H250zM553 396h26v1H553zM637 396h28v1H637zM689 396h25v1H689zM970 396h34v1H970zM250 397h34v1H250zM552 397h27v1H552zM637 397h28v1H637zM689 397h25v1H689zM970 397h34v1H970zM250 398h34v1H250zM530 398h49v1H530zM637 398h28v1H637zM689 398h25v1H689zM970 398h34v1H970zM250 399h34v1H250zM530 399h49v1H530zM637 399h28v1H637zM689 399h47v1H689zM970 399h34v1H970zM250 400h34v1H250zM530 400h49v1H530zM637 400h28v1H637zM689 400h47v1H689zM970 400h34v1H970zM250 401h34v1H250zM530 401h27v1H530zM637 401h28v1H637zM689 401h47v1H689zM970 401h34v1H970zM250 402h34v1H250zM530 402h26v1H530zM637 402h28v1H637zM711 402h25v1H711zM970 402h34v1H970zM250 403h34v1H250zM530 403h26v1H530zM637 403h28v1H637zM711 403h25v1H711zM970 403h34v1H970zM250 404h34v1H250zM530 404h26v1H530zM637 404h28v1H637zM711 404h25v1H711zM970 404h34v1H970zM250 405h34v1H250zM530 405h26v1H530zM637 405h28v1H637zM711 405h25v1H711zM970 405h34v1H970zM250 406h34v1H250zM530 406h26v1H530zM637 406h28v1H637zM711 406h25v1H711zM970 406h34v1H970zM250 407h34v1H250zM530 407h26v1H530zM637 407h28v1H637zM711 407h25v1H711zM970 407h34v1H970zM250 408h34v1H250zM530 408h26v1H530zM637 408h28v1H637zM711 408h25v1H711zM970 408h34v1H970zM250 409h34v1H250zM530 409h26v1H530zM637 409h28v1H637zM711 409h25v1H711zM970 409h34v1H970zM250 410h34v1H250zM530 410h26v1H530zM637 410h28v1H637zM711 410h25v1H711zM970 410h34v1H970zM250 411h34v1H250zM530 411h26v1H530zM637 411h28v1H637zM711 411h25v1H711zM970 411h34v1H970zM250 412h34v1H250zM530 412h26v1H530zM637 412h28v1H637zM711 412h25v1H711zM970 412h34v1H970zM250 413h34v1H250zM530 413h26v1H530zM637 413h28v1H637zM711 413h25v1H711zM970 413h34v1H970zM250 414h34v1H250zM530 414h26v1H530zM616 414h49v1H616zM711 414h25v1H711zM970 414h34v1H970zM250 415h34v1H250zM530 415h26v1H530zM616 415h49v1H616zM711 415h25v1H711zM970 415h34v1H970zM250 416h34v1H250zM530 416h26v1H530zM616 416h48v1H616zM711 416h25v1H711zM970 416h34v1H970zM250 417h34v1H250zM530 417h26v1H530zM616 417h28v1H616zM711 417h25v1H711zM970 417h34v1H970zM250 418h34v1H250zM530 418h26v1H530zM616 418h28v1H616zM711 418h25v1H711zM970 418h34v1H970zM250 419h34v1H250zM530 419h26v1H530zM616 419h28v1H616zM711 419h25v1H711zM970 419h34v1H970zM250 420h34v1H250zM530 420h26v1H530zM616 420h28v1H616zM711 420h25v1H711zM970 420h34v1H970zM250 421h34v1H250zM530 421h26v1H530zM616 421h28v1H616zM711 421h26v1H711zM970 421h34v1H970zM250 422h34v1H250zM507 422h49v1H507zM616 422h28v1H616zM711 422h48v1H711zM970 422h34v1H970zM250 423h34v1H250zM507 423h49v1H507zM616 423h28v1H616zM711 423h48v1H711zM970 423h34v1H970zM250 424h34v1H250zM507 424h49v1H507zM616 424h28v1H616zM712 424h47v1H712zM970 424h34v1H970zM250 425h34v1H250zM507 425h27v1H507zM616 425h28v1H616zM733 425h26v1H733zM970 425h34v1H970zM250 426h34v1H250zM507 426h27v1H507zM616 426h28v1H616zM733 426h26v1H733zM970 426h34v1H970zM250 427h34v1H250zM507 427h27v1H507zM616 427h28v1H616zM733 427h26v1H733zM970 427h34v1H970zM250 428h34v1H250zM507 428h27v1H507zM616 428h28v1H616zM733 428h26v1H733zM970 428h34v1H970zM250 429h34v1H250zM507 429h27v1H507zM616 429h28v1H616zM733 429h26v1H733zM970 429h34v1H970zM250 430h34v1H250zM507 430h27v1H507zM616 430h28v1H616zM733 430h26v1H733zM970 430h34v1H970zM250 431h34v1H250zM507 431h27v1H507zM616 431h28v1H616zM733 431h26v1H733zM970 431h34v1H970zM250 432h34v1H250zM507 432h27v1H507zM616 432h28v1H616zM733 432h26v1H733zM970 432h34v1H970zM250 433h34v1H250zM507 433h27v1H507zM616 433h28v1H616zM733 433h26v1H733zM970 433h34v1H970zM250 434h34v1H250zM507 434h27v1H507zM616 434h28v1H616zM733 434h26v1H733zM970 434h34v1H970zM250 435h34v1H250zM507 435h27v1H507zM616 435h28v1H616zM733 435h26v1H733zM970 435h34v1H970zM250 436h34v1H250zM507 436h27v1H507zM616 436h28v1H616zM733 436h26v1H733zM970 436h34v1H970zM250 437h34v1H250zM507 437h27v1H507zM616 437h28v1H616zM733 437h26v1H733zM970 437h34v1H970zM283 438h36v1H283zM408 438h26v1H408zM507 438h27v1H507zM616 438h28v1H616zM733 438h26v1H733zM820 438h26v1H820zM935 438h36v1H935zM283 439h36v1H283zM408 439h27v1H408zM507 439h27v1H507zM616 439h28v1H616zM733 439h26v1H733zM819 439h28v1H819zM935 439h36v1H935zM283 440h36v1H283zM408 440h27v1H408zM507 440h27v1H507zM616 440h28v1H616zM733 440h26v1H733zM819 440h28v1H819zM935 440h36v1H935zM283 441h36v1H283zM408 441h27v1H408zM507 441h27v1H507zM616 441h28v1H616zM733 441h26v1H733zM819 441h28v1H819zM935 441h36v1H935zM283 442h36v1H283zM408 442h27v1H408zM507 442h27v1H507zM616 442h28v1H616zM733 442h26v1H733zM819 442h28v1H819zM935 442h36v1H935zM283 443h36v1H283zM408 443h27v1H408zM507 443h27v1H507zM616 443h28v1H616zM733 443h26v1H733zM819 443h28v1H819zM935 443h36v1H935zM283 444h36v1H283zM408 444h27v1H408zM507 444h27v1H507zM616 444h28v1H616zM733 444h26v1H733zM819 444h28v1H819zM935 444h36v1H935zM283 445h36v1H283zM408 445h27v1H408zM507 445h27v1H507zM616 445h28v1H616zM733 445h26v1H733zM819 445h28v1H819zM935 445h36v1H935zM283 446h36v1H283zM408 446h27v1H408zM507 446h49v1H507zM616 446h28v1H616zM712 446h47v1H712zM819 446h28v1H819zM935 446h36v1H935zM283 447h36v1H283zM408 447h27v1H408zM507 447h49v1H507zM616 447h28v1H616zM711 447h48v1H711zM819 447h28v1H819zM935 447h36v1H935zM283 448h36v1H283zM408 448h27v1H408zM507 448h49v1H507zM616 448h28v1H616zM711 448h48v1H711zM819 448h28v1H819zM935 448h36v1H935zM283 449h36v1H283zM408 449h27v1H408zM529 449h27v1H529zM616 449h28v1H616zM711 449h26v1H711zM819 449h28v1H819zM935 449h36v1H935zM283 450h36v1H283zM408 450h27v1H408zM530 450h26v1H530zM616 450h28v1H616zM711 450h26v1H711zM819 450h28v1H819zM935 450h36v1H935zM283 451h36v1H283zM408 451h27v1H408zM530 451h26v1H530zM616 451h28v1H616zM711 451h26v1H711zM819 451h28v1H819zM935 451h36v1H935zM283 452h36v1H283zM408 452h27v1H408zM530 452h26v1H530zM616 452h28v1H616zM711 452h26v1H711zM819 452h28v1H819zM935 452h36v1H935zM283 453h36v1H283zM408 453h27v1H408zM530 453h26v1H530zM616 453h28v1H616zM711 453h26v1H711zM819 453h28v1H819zM935 453h36v1H935zM283 454h36v1H283zM408 454h27v1H408zM530 454h26v1H530zM616 454h28v1H616zM711 454h26v1H711zM819 454h28v1H819zM935 454h36v1H935zM283 455h36v1H283zM408 455h27v1H408zM530 455h26v1H530zM616 455h28v1H616zM711 455h26v1H711zM819 455h28v1H819zM935 455h36v1H935zM283 456h36v1H283zM408 456h27v1H408zM530 456h26v1H530zM616 456h28v1H616zM711 456h26v1H711zM819 456h28v1H819zM935 456h36v1H935zM283 457h36v1H283zM408 457h27v1H408zM530 457h26v1H530zM616 457h28v1H616zM711 457h26v1H711zM819 457h28v1H819zM935 457h36v1H935zM283 458h36v1H283zM408 458h27v1H408zM530 458h26v1H530zM616 458h28v1H616zM711 458h26v1H711zM819 458h28v1H819zM935 458h36v1H935zM283 459h36v1H283zM408 459h27v1H408zM530 459h26v1H530zM616 459h28v1H616zM711 459h26v1H711zM819 459h28v1H819zM935 459h36v1H935zM283 460h36v1H283zM408 460h27v1H408zM530 460h26v1H530zM616 460h28v1H616zM711 460h26v1H711zM819 460h28v1H819zM935 460h36v1H935zM283 461h36v1H283zM408 461h27v1H408zM530 461h26v1H530zM616 461h28v1H616zM711 461h26v1H711zM819 461h28v1H819zM935 461h36v1H935zM283 462h36v1H283zM408 462h27v1H408zM530 462h26v1H530zM616 462h28v1H616zM711 462h26v1H711zM819 462h28v1H819zM935 462h36v1H935zM283 463h36v1H283zM408 463h27v1H408zM530 463h26v1H530zM616 463h28v1H616zM711 463h26v1H711zM819 463h28v1H819zM935 463h36v1H935zM283 464h36v1H283zM408 464h27v1H408zM530 464h26v1H530zM616 464h28v1H616zM711 464h26v1H711zM819 464h28v1H819zM935 464h36v1H935zM283 465h36v1H283zM408 465h27v1H408zM530 465h26v1H530zM600 465h44v1H600zM711 465h26v1H711zM819 465h28v1H819zM935 465h36v1H935zM283 466h36v1H283zM408 466h27v1H408zM530 466h26v1H530zM600 466h44v1H600zM711 466h26v1H711zM819 466h28v1H819zM935 466h36v1H935zM283 467h36v1H283zM408 467h27v1H408zM530 467h26v1H530zM600 467h27v1H600zM711 467h26v1H711zM819 467h28v1H819zM935 467h36v1H935zM283 468h152v1H283zM530 468h26v1H530zM600 468h27v1H600zM711 468h26v1H711zM819 468h152v1H819zM283 469h152v1H283zM530 469h27v1H530zM600 469h27v1H600zM711 469h26v1H711zM819 469h152v1H819zM283 470h152v1H283zM530 470h49v1H530zM600 470h27v1H600zM689 470h48v1H689zM819 470h152v1H819zM318 471h117v1H318zM530 471h49v1H530zM600 471h27v1H600zM689 471h48v1H689zM819 471h117v1H819zM318 472h117v1H318zM530 472h49v1H530zM600 472h27v1H600zM689 472h48v1H689zM819 472h117v1H819zM318 473h117v1H318zM553 473h26v1H553zM600 473h27v1H600zM689 473h26v1H689zM819 473h117v1H819zM318 474h117v1H318zM553 474h26v1H553zM600 474h27v1H600zM689 474h26v1H689zM819 474h117v1H819zM318 475h117v1H318zM553 475h26v1H553zM600 475h27v1H600zM689 475h26v1H689zM819 475h117v1H819zM318 476h117v1H318zM553 476h26v1H553zM600 476h27v1H600zM689 476h26v1H689zM819 476h117v1H819zM318 477h117v1H318zM553 477h26v1H553zM600 477h27v1H600zM689 477h26v1H689zM819 477h117v1H819zM318 478h117v1H318zM553 478h26v1H553zM600 478h27v1H600zM689 478h26v1H689zM819 478h117v1H819zM318 479h117v1H318zM553 479h26v1H553zM600 479h27v1H600zM689 479h26v1H689zM819 479h117v1H819zM318 480h117v1H318zM553 480h26v1H553zM600 480h27v1H600zM689 480h26v1H689zM819 480h117v1H819zM318 481h117v1H318zM553 481h26v1H553zM600 481h27v1H600zM689 481h26v1H689zM819 481h117v1H819zM318 482h117v1H318zM553 482h26v1H553zM600 482h27v1H600zM689 482h26v1H689zM819 482h117v1H819zM318 483h117v1H318zM553 483h26v1H553zM600 483h27v1H600zM689 483h26v1H689zM819 483h117v1H819zM318 484h117v1H318zM553 484h26v1H553zM600 484h27v1H600zM689 484h26v1H689zM819 484h117v1H819zM318 485h117v1H318zM553 485h26v1H553zM600 485h27v1H600zM689 485h26v1H689zM819 485h117v1H819zM318 486h117v1H318zM553 486h26v1H553zM600 486h27v1H600zM689 486h26v1H689zM819 486h117v1H819zM318 487h117v1H318zM553 487h26v1H553zM600 487h27v1H600zM689 487h26v1H689zM819 487h117v1H819zM318 488h117v1H318zM553 488h26v1H553zM600 488h27v1H600zM689 488h26v1H689zM819 488h117v1H819zM318 489h117v1H318zM553 489h26v1H553zM600 489h27v1H600zM689 489h26v1H689zM819 489h117v1H819zM318 490h117v1H318zM553 490h26v1H553zM600 490h27v1H600zM689 490h26v1H689zM819 490h117v1H819zM318 491h117v1H318zM553 491h26v1H553zM600 491h27v1H600zM689 491h26v1H689zM819 491h117v1H819zM318 492h117v1H318zM553 492h26v1H553zM600 492h27v1H600zM689 492h26v1H689zM819 492h117v1H819zM318 493h117v1H318zM553 493h26v1H553zM600 493h27v1H600zM689 493h26v1H689zM819 493h117v1H819zM318 494h117v1H318zM553 494h26v1H553zM600 494h27v1H600zM689 494h26v1H689zM819 494h117v1H819zM318 495h117v1H318zM553 495h26v1H553zM600 495h27v1H600zM689 495h25v1H689zM819 495h117v1H819zM318 496h117v1H318zM600 496h27v1H600zM819 496h117v1H819zM318 497h117v1H318zM600 497h27v1H600zM819 497h117v1H819zM318 498h117v1H318zM600 498h27v1H600zM819 498h117v1H819zM318 499h117v1H318zM600 499h27v1H600zM819 499h117v1H819zM318 500h117v1H318zM600 500h27v1H600zM819 500h117v1H819zM318 501h117v1H318zM600 501h27v1H600zM819 501h117v1H819zM318 502h117v1H318zM600 502h27v1H600zM819 502h117v1H819zM318 503h117v1H318zM600 503h27v1H600zM819 503h117v1H819zM353 504h82v1H353zM600 504h27v1H600zM819 504h82v1H819zM354 505h81v1H354zM600 505h27v1H600zM819 505h82v1H819zM353 506h82v1H353zM600 506h27v1H600zM819 506h82v1H819zM353 507h82v1H353zM600 507h27v1H600zM819 507h82v1H819zM353 508h82v1H353zM600 508h27v1H600zM819 508h82v1H819zM353 509h82v1H353zM600 509h27v1H600zM819 509h82v1H819zM353 510h82v1H353zM600 510h27v1H600zM819 510h82v1H819zM353 511h82v1H353zM600 511h27v1H600zM819 511h82v1H819zM353 512h82v1H353zM600 512h27v1H600zM819 512h82v1H819zM353 513h82v1H353zM600 513h27v1H600zM819 513h82v1H819zM353 514h82v1H353zM600 514h27v1H600zM819 514h82v1H819zM353 515h82v1H353zM600 515h27v1H600zM819 515h82v1H819zM353 516h82v1H353zM600 516h27v1H600zM819 516h82v1H819zM353 517h82v1H353zM819 517h82v1H819zM353 518h82v1H353zM819 518h82v1H819zM353 519h82v1H353zM819 519h82v1H819zM353 520h82v1H353zM819 520h82v1H819zM353 521h82v1H353zM819 521h82v1H819zM353 522h82v1H353zM819 522h82v1H819zM353 523h82v1H353zM819 523h82v1H819zM353 524h82v1H353zM819 524h82v1H819zM353 525h82v1H353zM819 525h82v1H819zM353 526h82v1H353zM819 526h82v1H819zM353 527h82v1H353zM819 527h82v1H819zM353 528h82v1H353zM819 528h82v1H819zM353 529h82v1H353zM819 529h82v1H819zM353 530h82v1H353zM819 530h82v1H819zM353 531h82v1H353zM819 531h82v1H819zM353 532h82v1H353zM819 532h82v1H819zM353 533h82v1H353zM819 533h82v1H819zM353 534h82v1H353zM819 534h82v1H819zM353 535h82v1H353zM819 535h82v1H819zM353 536h82v1H353zM819 536h82v1H819zM353 537h82v1H353zM819 537h82v1H819zM353 538h82v1H353zM819 538h82v1H819zM353 539h548v1H353zM353 540h548v1H353zM353 541h548v1H353zM353 542h548v1H353zM353 543h548v1H353zM353 544h548v1H353zM353 545h548v1H353zM353 546h548v1H353zM353 547h548v1H353zM353 548h548v1H353zM353 549h548v1H353zM353 550h548v1H353zM353 551h548v1H353zM353 552h548v1H353zM353 553h548v1H353zM353 554h548v1H353zM353 555h548v1H353zM353 556h548v1H353zM353 557h548v1H353zM353 558h548v1H353zM353 559h33v1H353zM868 559h33v1H868zM353 560h33v1H353zM868 560h33v1H868zM353 561h33v1H353zM868 561h33v1H868zM353 562h33v1H353zM868 562h33v1H868zM353 563h33v1H353zM868 563h33v1H868zM353 564h33v1H353zM868 564h33v1H868zM353 565h33v1H353zM868 565h33v1H868zM353 566h33v1H353zM868 566h33v1H868zM353 567h33v1H353zM868 567h33v1H868zM353 568h33v1H353zM868 568h33v1H868zM353 569h33v1H353zM868 569h33v1H868zM353 570h33v1H353zM868 570h33v1H868zM353 571h33v1H353zM868 571h33v1H868zM353 572h33v1H353zM868 572h33v1H868zM353 573h33v1H353zM868 573h33v1H868zM353 574h33v1H353zM868 574h33v1H868zM353 575h33v1H353zM868 575h33v1H868zM353 576h33v1H353zM868 576h33v1H868zM353 577h33v1H353zM868 577h33v1H868zM353 578h33v1H353zM868 578h33v1H868zM353 579h33v1H353zM868 579h33v1H868zM353 580h33v1H353zM868 580h33v1H868zM353 581h33v1H353zM868 581h33v1H868zM354 582h32v1H354zM868 582h33v1H868zM354 583h32v1H354zM868 583h33v1H868zM354 584h32v1H354zM868 584h33v1H868zM353 585h33v1H353zM868 585h33v1H868zM353 586h33v1H353zM868 586h33v1H868zM354 587h32v1H354zM868 587h33v1H868zM354 588h32v1H354zM868 588h33v1H868zM353 589h33v1H353zM868 589h33v1H868zM353 590h33v1H353zM868 590h33v1H868zM353 591h33v1H353zM868 591h33v1H868zM353 592h33v1H353zM868 592h33v1H868zM353 593h33v1H353zM868 593h33v1H868zM353 594h33v1H353zM868 594h33v1H868zM353 595h33v1H353zM868 595h33v1H868zM353 596h33v1H353zM868 596h33v1H868zM353 597h33v1H353zM868 597h33v1H868zM353 598h33v1H353zM868 598h33v1H868zM353 599h33v1H353zM868 599h33v1H868zM353 600h33v1H353zM868 600h33v1H868zM353 601h33v1H353zM868 601h33v1H868zM353 602h33v1H353zM868 602h33v1H868zM354 603h32v1H354zM868 603h33v1H868zM354 604h32v1H354zM868 604h33v1H868zM354 605h32v1H354zM868 605h33v1H868zM354 606h32v1H354zM868 606h33v1H868zM354 607h32v1H354zM868 607h33v1H868zM354 608h32v1H354zM868 608h33v1H868zM354 609h32v1H354zM868 609h33v1H868zM354 610h32v1H354zM868 610h33v1H868zM354 611h32v1H354zM868 611h33v1H868zM354 612h32v1H354zM868 612h33v1H868zM354 613h32v1H354zM868 613h33v1H868zM354 614h32v1H354zM868 614h33v1H868zM354 615h32v1H354zM868 615h33v1H868zM354 616h32v1H354zM868 616h33v1H868zM354 617h32v1H354zM868 617h33v1H868zM354 618h32v1H354zM868 618h33v1H868zM354 619h547v1H354zM354 620h547v1H354zM354 621h547v1H354zM354 622h547v1H354zM354 623h547v1H354zM354 624h547v1H354zM354 625h547v1H354zM354 626h547v1H354zM354 627h547v1H354zM354 628h547v1H354zM354 629h547v1H354zM354 630h547v1H354zM354 631h547v1H354zM354 632h547v1H354zM354 633h547v1H354zM354 634h547v1H354zM354 635h547v1H354zM354 636h547v1H354zM354 637h547v1H354zM354 638h547v1H354zM354 639h547v1H354zM354 640h547v1H354zM354 641h547v1H354zM354 642h547v1H354zM354 643h547v1H354zM354 644h547v1H354zM354 645h547v1H354zM354 646h547v1H354zM354 647h547v1H354zM354 648h547v1H354zM353 649h548v1H353zM353 650h548v1H353zM353 651h548v1H353zM353 652h548v1H353zM353 653h548v1H353zM353 654h548v1H353zM353 655h548v1H353zM353 656h548v1H353zM353 657h548v1H353zM353 658h548v1H353zM354 659h547v1H354zM354 660h547v1H354zM354 661h547v1H354zM354 662h547v1H354zM354 663h310v1H354zM793 663h108v1H793zM354 664h310v1H354zM793 664h108v1H793zM354 665h310v1H354zM793 665h108v1H793zM354 666h310v1H354zM793 666h108v1H793zM354 667h310v1H354zM793 667h108v1H793zM354 668h310v1H354zM793 668h108v1H793zM354 669h310v1H354zM793 669h108v1H793zM354 670h310v1H354zM793 670h108v1H793zM354 671h310v1H354zM793 671h108v1H793zM354 672h310v1H354zM793 672h108v1H793zM354 673h310v1H354zM793 673h108v1H793zM354 674h310v1H354zM793 674h108v1H793zM354 675h310v1H354zM793 675h108v1H793zM354 676h310v1H354zM793 676h108v1H793zM354 677h310v1H354zM793 677h108v1H793zM354 678h310v1H354zM793 678h108v1H793zM354 679h310v1H354zM793 679h108v1H793zM354 680h310v1H354zM793 680h108v1H793zM354 681h310v1H354zM793 681h108v1H793zM354 682h310v1H354zM793 682h108v1H793zM354 683h310v1H354zM793 683h108v1H793zM354 684h310v1H354zM793 684h108v1H793zM354 685h310v1H354zM793 685h108v1H793zM354 686h310v1H354zM793 686h108v1H793zM354 687h310v1H354zM793 687h108v1H793zM354 688h310v1H354zM793 688h108v1H793zM353 689h311v1H353zM793 689h108v1H793zM354 690h310v1H354zM793 690h107v1H793zM353 691h311v1H353zM793 691h108v1H793zM325 692h339v1H325zM793 692h136v1H793zM325 693h339v1H325zM793 693h136v1H793zM325 694h339v1H325zM793 694h136v1H793zM325 695h339v1H325zM793 695h136v1H793zM325 696h339v1H325zM793 696h136v1H793zM325 697h339v1H325zM793 697h136v1H793zM325 698h338v1H325zM794 698h135v1H794zM325 699h135v1H325zM819 699h110v1H819zM325 700h135v1H325zM819 700h110v1H819zM325 701h135v1H325zM819 701h110v1H819zM325 702h135v1H325zM819 702h110v1H819zM325 703h135v1H325zM819 703h110v1H819zM325 704h135v1H325zM819 704h110v1H819zM325 705h135v1H325zM819 705h110v1H819zM325 706h135v1H325zM819 706h110v1H819zM325 707h135v1H325zM819 707h110v1H819zM325 708h135v1H325zM819 708h110v1H819zM325 709h135v1H325zM819 709h110v1H819zM325 710h135v1H325zM819 710h110v1H819zM325 711h135v1H325zM819 711h110v1H819zM325 712h135v1H325zM819 712h110v1H819zM325 713h135v1H325zM819 713h110v1H819zM325 714h135v1H325zM819 714h110v1H819zM325 715h135v1H325zM819 715h110v1H819zM325 716h135v1H325zM819 716h110v1H819zM325 717h135v1H325zM819 717h110v1H819zM325 718h135v1H325zM819 718h110v1H819zM325 719h135v1H325zM819 719h110v1H819zM325 720h135v1H325zM819 720h110v1H819zM325 721h135v1H325zM819 721h110v1H819zM325 722h135v1H325zM819 722h110v1H819zM325 723h135v1H325zM819 723h110v1H819zM325 724h135v1H325zM820 724h109v1H820zM325 725h93v1H325zM841 725h88v1H841zM292 726h126v1H292zM841 726h120v1H841zM292 727h126v1H292zM841 727h121v1H841zM292 728h126v1H292zM841 728h121v1H841zM292 729h126v1H292zM841 729h121v1H841zM292 730h126v1H292zM841 730h121v1H841zM292 731h126v1H292zM841 731h121v1H841zM292 732h34v1H292zM353 732h65v1H353zM841 732h60v1H841zM928 732h34v1H928zM292 733h33v1H292zM353 733h65v1H353zM841 733h60v1H841zM929 733h33v1H929zM292 734h33v1H292zM353 734h65v1H353zM841 734h60v1H841zM929 734h33v1H929zM292 735h33v1H292zM353 735h65v1H353zM841 735h60v1H841zM929 735h33v1H929zM292 736h33v1H292zM353 736h65v1H353zM699 736h31v1H699zM841 736h60v1H841zM929 736h33v1H929zM292 737h33v1H292zM353 737h65v1H353zM699 737h31v1H699zM841 737h60v1H841zM929 737h33v1H929zM292 738h33v1H292zM353 738h65v1H353zM699 738h31v1H699zM841 738h60v1H841zM929 738h33v1H929zM292 739h33v1H292zM353 739h65v1H353zM699 739h31v1H699zM841 739h60v1H841zM929 739h33v1H929zM292 740h33v1H292zM353 740h65v1H353zM699 740h31v1H699zM841 740h60v1H841zM929 740h33v1H929zM292 741h33v1H292zM353 741h65v1H353zM699 741h31v1H699zM841 741h60v1H841zM929 741h33v1H929zM292 742h33v1H292zM353 742h65v1H353zM699 742h31v1H699zM841 742h60v1H841zM929 742h33v1H929zM292 743h33v1H292zM353 743h65v1H353zM699 743h31v1H699zM841 743h60v1H841zM929 743h33v1H929zM292 744h33v1H292zM353 744h65v1H353zM699 744h31v1H699zM841 744h60v1H841zM929 744h33v1H929zM292 745h33v1H292zM353 745h65v1H353zM699 745h31v1H699zM841 745h60v1H841zM929 745h33v1H929zM292 746h33v1H292zM353 746h65v1H353zM699 746h31v1H699zM841 746h60v1H841zM929 746h33v1H929zM292 747h33v1H292zM353 747h65v1H353zM699 747h31v1H699zM841 747h60v1H841zM929 747h33v1H929zM292 748h33v1H292zM353 748h65v1H353zM699 748h31v1H699zM841 748h60v1H841zM929 748h33v1H929zM292 749h33v1H292zM353 749h65v1H353zM699 749h31v1H699zM841 749h60v1H841zM929 749h33v1H929zM292 750h33v1H292zM353 750h65v1H353zM699 750h31v1H699zM841 750h60v1H841zM929 750h33v1H929zM292 751h33v1H292zM353 751h65v1H353zM699 751h31v1H699zM841 751h60v1H841zM929 751h33v1H929zM292 752h33v1H292zM353 752h65v1H353zM699 752h31v1H699zM841 752h60v1H841zM929 752h33v1H929zM292 753h33v1H292zM353 753h65v1H353zM699 753h31v1H699zM841 753h60v1H841zM929 753h33v1H929zM292 754h33v1H292zM353 754h65v1H353zM699 754h31v1H699zM841 754h60v1H841zM929 754h33v1H929zM292 755h33v1H292zM353 755h65v1H353zM699 755h31v1H699zM841 755h60v1H841zM929 755h33v1H929zM292 756h33v1H292zM353 756h65v1H353zM699 756h31v1H699zM841 756h60v1H841zM929 756h33v1H929zM292 757h33v1H292zM353 757h65v1H353zM699 757h31v1H699zM841 757h60v1H841zM929 757h33v1H929zM292 758h33v1H292zM353 758h65v1H353zM699 758h31v1H699zM841 758h60v1H841zM929 758h33v1H929zM292 759h33v1H292zM354 759h64v1H354zM699 759h31v1H699zM841 759h60v1H841zM929 759h33v1H929zM292 760h33v1H292zM354 760h64v1H354zM699 760h31v1H699zM841 760h60v1H841zM929 760h33v1H929zM292 761h33v1H292zM354 761h64v1H354zM699 761h31v1H699zM841 761h60v1H841zM929 761h33v1H929zM292 762h33v1H292zM353 762h65v1H353zM699 762h32v1H699zM732 762h3v1H732zM736 762h4v1H736zM841 762h60v1H841zM929 762h33v1H929zM292 763h33v1H292zM353 763h65v1H353zM699 763h58v1H699zM841 763h60v1H841zM929 763h33v1H929zM292 764h33v1H292zM353 764h65v1H353zM699 764h57v1H699zM841 764h60v1H841zM929 764h33v1H929zM292 765h33v1H292zM354 765h64v1H354zM699 765h57v1H699zM841 765h59v1H841zM929 765h33v1H929zM292 766h33v1H292zM381 766h37v1H381zM484 766h69v1H484zM699 766h58v1H699zM841 766h32v1H841zM929 766h33v1H929zM292 767h33v1H292zM381 767h37v1H381zM484 767h69v1H484zM699 767h58v1H699zM841 767h32v1H841zM929 767h33v1H929zM292 768h33v1H292zM381 768h37v1H381zM485 768h68v1H485zM725 768h32v1H725zM841 768h32v1H841zM929 768h33v1H929zM292 769h33v1H292zM381 769h37v1H381zM485 769h68v1H485zM725 769h32v1H725zM841 769h32v1H841zM929 769h33v1H929zM292 770h33v1H292zM381 770h37v1H381zM484 770h69v1H484zM725 770h32v1H725zM841 770h32v1H841zM929 770h33v1H929zM292 771h33v1H292zM381 771h37v1H381zM484 771h69v1H484zM725 771h32v1H725zM841 771h32v1H841zM929 771h33v1H929zM292 772h33v1H292zM381 772h37v1H381zM484 772h69v1H484zM725 772h32v1H725zM841 772h32v1H841zM929 772h33v1H929zM292 773h33v1H292zM381 773h37v1H381zM484 773h69v1H484zM725 773h32v1H725zM841 773h32v1H841zM929 773h33v1H929zM292 774h33v1H292zM381 774h37v1H381zM484 774h69v1H484zM725 774h32v1H725zM841 774h32v1H841zM929 774h33v1H929zM292 775h33v1H292zM381 775h37v1H381zM484 775h69v1H484zM725 775h32v1H725zM841 775h32v1H841zM929 775h33v1H929zM292 776h33v1H292zM381 776h37v1H381zM484 776h69v1H484zM725 776h32v1H725zM841 776h32v1H841zM929 776h33v1H929zM292 777h33v1H292zM381 777h37v1H381zM484 777h69v1H484zM725 777h32v1H725zM841 777h32v1H841zM929 777h33v1H929zM292 778h33v1H292zM381 778h37v1H381zM484 778h69v1H484zM725 778h32v1H725zM841 778h32v1H841zM929 778h33v1H929zM292 779h33v1H292zM381 779h37v1H381zM484 779h69v1H484zM725 779h32v1H725zM841 779h32v1H841zM929 779h33v1H929zM292 780h33v1H292zM381 780h37v1H381zM484 780h69v1H484zM725 780h32v1H725zM841 780h32v1H841zM929 780h33v1H929zM292 781h33v1H292zM381 781h37v1H381zM484 781h69v1H484zM725 781h32v1H725zM841 781h32v1H841zM929 781h33v1H929zM292 782h33v1H292zM381 782h37v1H381zM484 782h69v1H484zM725 782h32v1H725zM841 782h32v1H841zM929 782h33v1H929zM292 783h33v1H292zM381 783h37v1H381zM484 783h69v1H484zM725 783h32v1H725zM841 783h32v1H841zM929 783h33v1H929zM292 784h33v1H292zM381 784h37v1H381zM484 784h69v1H484zM725 784h32v1H725zM841 784h32v1H841zM929 784h33v1H929zM292 785h33v1H292zM381 785h37v1H381zM484 785h69v1H484zM725 785h32v1H725zM841 785h32v1H841zM929 785h33v1H929zM292 786h33v1H292zM381 786h37v1H381zM484 786h69v1H484zM725 786h32v1H725zM841 786h32v1H841zM929 786h33v1H929zM292 787h33v1H292zM381 787h37v1H381zM484 787h69v1H484zM725 787h32v1H725zM841 787h32v1H841zM929 787h33v1H929zM292 788h33v1H292zM381 788h37v1H381zM484 788h69v1H484zM725 788h58v1H725zM841 788h32v1H841zM929 788h33v1H929zM292 789h33v1H292zM381 789h37v1H381zM484 789h69v1H484zM725 789h58v1H725zM841 789h32v1H841zM929 789h33v1H929zM292 790h33v1H292zM381 790h37v1H381zM484 790h69v1H484zM725 790h58v1H725zM841 790h32v1H841zM929 790h33v1H929zM292 791h33v1H292zM381 791h37v1H381zM484 791h69v1H484zM725 791h58v1H725zM841 791h32v1H841zM929 791h33v1H929zM292 792h33v1H292zM381 792h37v1H381zM484 792h69v1H484zM725 792h58v1H725zM841 792h32v1H841zM929 792h33v1H929zM292 793h33v1H292zM381 793h37v1H381zM484 793h69v1H484zM726 793h57v1H726zM841 793h32v1H841zM929 793h33v1H929zM292 794h33v1H292zM381 794h37v1H381zM484 794h69v1H484zM752 794h31v1H752zM841 794h32v1H841zM929 794h33v1H929zM292 795h33v1H292zM381 795h37v1H381zM484 795h69v1H484zM752 795h31v1H752zM841 795h32v1H841zM929 795h33v1H929zM292 796h33v1H292zM381 796h37v1H381zM484 796h69v1H484zM752 796h31v1H752zM841 796h32v1H841zM929 796h33v1H929zM292 797h33v1H292zM381 797h37v1H381zM484 797h69v1H484zM752 797h31v1H752zM841 797h32v1H841zM929 797h33v1H929zM292 798h33v1H292zM381 798h37v1H381zM484 798h69v1H484zM752 798h31v1H752zM841 798h32v1H841zM929 798h33v1H929zM292 799h33v1H292zM381 799h37v1H381zM484 799h69v1H484zM752 799h31v1H752zM841 799h32v1H841zM929 799h33v1H929zM292 800h33v1H292zM381 800h37v1H381zM484 800h69v1H484zM752 800h31v1H752zM841 800h32v1H841zM929 800h33v1H929zM292 801h33v1H292zM381 801h37v1H381zM484 801h69v1H484zM752 801h31v1H752zM841 801h32v1H841zM929 801h33v1H929zM292 802h33v1H292zM381 802h37v1H381zM484 802h69v1H484zM752 802h31v1H752zM841 802h32v1H841zM929 802h33v1H929zM292 803h33v1H292zM381 803h37v1H381zM484 803h69v1H484zM752 803h31v1H752zM841 803h32v1H841zM929 803h33v1H929zM292 804h33v1H292zM381 804h37v1H381zM484 804h69v1H484zM752 804h31v1H752zM841 804h32v1H841zM929 804h33v1H929zM292 805h33v1H292zM381 805h37v1H381zM484 805h69v1H484zM752 805h31v1H752zM841 805h32v1H841zM929 805h33v1H929zM292 806h33v1H292zM381 806h37v1H381zM484 806h69v1H484zM752 806h31v1H752zM841 806h32v1H841zM929 806h33v1H929zM292 807h33v1H292zM381 807h37v1H381zM484 807h69v1H484zM752 807h31v1H752zM841 807h32v1H841zM929 807h33v1H929zM292 808h33v1H292zM381 808h37v1H381zM484 808h69v1H484zM752 808h31v1H752zM841 808h32v1H841zM929 808h33v1H929zM292 809h33v1H292zM381 809h37v1H381zM484 809h69v1H484zM752 809h31v1H752zM841 809h32v1H841zM929 809h33v1H929zM292 810h33v1H292zM381 810h37v1H381zM484 810h69v1H484zM752 810h31v1H752zM841 810h32v1H841zM929 810h33v1H929zM292 811h33v1H292zM381 811h37v1H381zM484 811h69v1H484zM752 811h31v1H752zM841 811h32v1H841zM929 811h33v1H929zM292 812h33v1H292zM381 812h37v1H381zM484 812h69v1H484zM752 812h31v1H752zM841 812h32v1H841zM929 812h33v1H929zM292 813h33v1H292zM381 813h37v1H381zM484 813h69v1H484zM726 813h57v1H726zM841 813h32v1H841zM929 813h33v1H929zM292 814h33v1H292zM381 814h37v1H381zM484 814h69v1H484zM725 814h58v1H725zM841 814h32v1H841zM929 814h33v1H929zM292 815h33v1H292zM381 815h37v1H381zM484 815h69v1H484zM725 815h58v1H725zM841 815h32v1H841zM929 815h33v1H929zM292 816h33v1H292zM381 816h37v1H381zM484 816h69v1H484zM725 816h58v1H725zM841 816h32v1H841zM929 816h33v1H929zM292 817h33v1H292zM381 817h37v1H381zM484 817h69v1H484zM725 817h58v1H725zM841 817h32v1H841zM929 817h33v1H929zM292 818h33v1H292zM381 818h37v1H381zM484 818h69v1H484zM725 818h58v1H725zM841 818h32v1H841zM929 818h33v1H929zM292 819h33v1H292zM381 819h37v1H381zM484 819h69v1H484zM725 819h32v1H725zM841 819h32v1H841zM929 819h33v1H929zM292 820h33v1H292zM381 820h37v1H381zM484 820h69v1H484zM725 820h32v1H725zM841 820h32v1H841zM929 820h33v1H929zM292 821h33v1H292zM381 821h37v1H381zM484 821h69v1H484zM725 821h32v1H725zM841 821h32v1H841zM929 821h33v1H929zM292 822h33v1H292zM381 822h37v1H381zM484 822h69v1H484zM725 822h32v1H725zM841 822h32v1H841zM929 822h33v1H929zM292 823h33v1H292zM381 823h37v1H381zM484 823h69v1H484zM725 823h32v1H725zM841 823h32v1H841zM929 823h33v1H929zM292 824h33v1H292zM381 824h37v1H381zM484 824h69v1H484zM725 824h32v1H725zM841 824h32v1H841zM929 824h33v1H929zM292 825h33v1H292zM381 825h37v1H381zM484 825h69v1H484zM725 825h32v1H725zM841 825h32v1H841zM929 825h33v1H929zM292 826h33v1H292zM381 826h37v1H381zM484 826h69v1H484zM725 826h32v1H725zM841 826h32v1H841zM929 826h33v1H929zM292 827h33v1H292zM381 827h37v1H381zM484 827h69v1H484zM725 827h32v1H725zM841 827h32v1H841zM929 827h33v1H929zM292 828h33v1H292zM381 828h37v1H381zM484 828h69v1H484zM725 828h32v1H725zM841 828h32v1H841zM929 828h33v1H929zM292 829h33v1H292zM381 829h37v1H381zM484 829h69v1H484zM725 829h32v1H725zM841 829h32v1H841zM929 829h33v1H929zM292 830h33v1H292zM381 830h37v1H381zM484 830h69v1H484zM725 830h32v1H725zM841 830h32v1H841zM929 830h33v1H929zM292 831h33v1H292zM381 831h37v1H381zM484 831h69v1H484zM725 831h31v1H725zM841 831h32v1H841zM929 831h33v1H929zM292 832h33v1H292zM381 832h37v1H381zM484 832h69v1H484zM725 832h31v1H725zM841 832h32v1H841zM929 832h33v1H929zM292 833h33v1H292zM381 833h37v1H381zM484 833h69v1H484zM725 833h31v1H725zM841 833h32v1H841zM929 833h33v1H929zM292 834h33v1H292zM381 834h37v1H381zM484 834h69v1H484zM725 834h31v1H725zM841 834h32v1H841zM929 834h33v1H929zM292 835h33v1H292zM381 835h37v1H381zM484 835h69v1H484zM725 835h31v1H725zM841 835h32v1H841zM929 835h33v1H929zM292 836h33v1H292zM381 836h37v1H381zM484 836h69v1H484zM725 836h32v1H725zM841 836h32v1H841zM929 836h33v1H929zM292 837h33v1H292zM381 837h37v1H381zM484 837h69v1H484zM725 837h32v1H725zM841 837h32v1H841zM929 837h33v1H929zM292 838h33v1H292zM381 838h37v1H381zM484 838h69v1H484zM725 838h32v1H725zM841 838h32v1H841zM929 838h33v1H929zM293 839h89v1H293zM395 839h22v1H395zM485 839h68v1H485zM699 839h57v1H699zM841 839h120v1H841zM325 840h70v1H325zM699 840h57v1H699zM859 840h70v1H859zM325 841h70v1H325zM699 841h57v1H699zM859 841h70v1H859zM325 842h70v1H325zM699 842h57v1H699zM859 842h70v1H859zM325 843h70v1H325zM699 843h57v1H699zM859 843h70v1H859zM325 844h70v1H325zM699 844h57v1H699zM859 844h70v1H859zM325 845h70v1H325zM699 845h31v1H699zM859 845h70v1H859zM325 846h70v1H325zM699 846h31v1H699zM859 846h70v1H859zM325 847h70v1H325zM699 847h31v1H699zM859 847h70v1H859zM325 848h70v1H325zM699 848h31v1H699zM859 848h70v1H859zM325 849h70v1H325zM699 849h31v1H699zM859 849h70v1H859zM325 850h70v1H325zM699 850h31v1H699zM859 850h70v1H859zM325 851h70v1H325zM699 851h31v1H699zM859 851h70v1H859zM325 852h70v1H325zM699 852h31v1H699zM859 852h70v1H859zM325 853h70v1H325zM699 853h31v1H699zM859 853h70v1H859zM325 854h70v1H325zM699 854h31v1H699zM859 854h70v1H859zM325 855h70v1H325zM699 855h31v1H699zM859 855h70v1H859zM325 856h70v1H325zM699 856h31v1H699zM859 856h70v1H859zM325 857h70v1H325zM699 857h31v1H699zM859 857h70v1H859zM325 858h70v1H325zM699 858h31v1H699zM859 858h70v1H859zM325 859h70v1H325zM699 859h31v1H699zM859 859h70v1H859zM325 860h70v1H325zM699 860h31v1H699zM859 860h70v1H859zM325 861h70v1H325zM699 861h31v1H699zM859 861h70v1H859zM325 862h70v1H325zM699 862h31v1H699zM859 862h70v1H859zM325 863h70v1H325zM699 863h31v1H699zM859 863h70v1H859zM325 864h70v1H325zM699 864h31v1H699zM859 864h70v1H859zM325 865h70v1H325zM699 865h31v1H699zM859 865h70v1H859zM325 866h70v1H325zM699 866h31v1H699zM859 866h70v1H859zM325 867h70v1H325zM699 867h31v1H699zM859 867h70v1H859zM325 868h70v1H325zM699 868h31v1H699zM859 868h70v1H859zM325 869h70v1H325zM699 869h31v1H699zM859 869h70v1H859zM325 870h70v1H325zM699 870h30v1H699zM859 870h70v1H859zM325 871h70v1H325zM859 871h70v1H859zM325 872h70v1H325zM859 872h70v1H859zM325 873h70v1H325zM859 873h70v1H859zM357 874h38v1H357zM859 874h38v1H859zM358 875h37v1H358zM859 875h37v1H859zM358 876h37v1H358zM859 876h37v1H859zM358 877h37v1H358zM859 877h37v1H859zM358 878h37v1H358zM859 878h37v1H859zM358 879h37v1H358zM859 879h37v1H859zM358 880h37v1H358zM859 880h37v1H859zM358 881h37v1H358zM859 881h37v1H859zM358 882h37v1H358zM859 882h37v1H859zM358 883h37v1H358zM859 883h37v1H859zM358 884h37v1H358zM859 884h37v1H859zM358 885h37v1H358zM859 885h37v1H859zM358 886h37v1H358zM859 886h37v1H859zM358 887h37v1H358zM859 887h37v1H859zM358 888h37v1H358zM859 888h37v1H859zM358 889h37v1H358zM859 889h37v1H859zM358 890h37v1H358zM859 890h37v1H859zM358 891h37v1H358zM859 891h37v1H859zM358 892h37v1H358zM859 892h37v1H859zM358 893h37v1H358zM859 893h37v1H859zM358 894h37v1H358zM859 894h37v1H859zM358 895h37v1H358zM859 895h37v1H859zM358 896h37v1H358zM859 896h37v1H859zM358 897h37v1H358zM859 897h37v1H859zM358 898h37v1H358zM859 898h37v1H859zM358 899h37v1H358zM859 899h37v1H859zM358 900h37v1H358zM859 900h37v1H859zM358 901h37v1H358zM859 901h37v1H859zM358 902h37v1H358zM859 902h37v1H859zM358 903h37v1H358zM859 903h37v1H859zM358 904h37v1H358zM859 904h37v1H859zM358 905h37v1H358zM859 905h37v1H859zM358 906h37v1H358zM859 906h37v1H859zM358 907h37v1H358zM859 907h37v1H859zM358 908h37v1H358zM859 908h37v1H859zM358 909h37v1H358zM859 909h37v1H859zM358 910h37v1H358zM859 910h37v1H859zM358 911h37v1H358zM859 911h37v1H859zM358 912h37v1H358zM859 912h37v1H859zM358 913h37v1H358zM859 913h37v1H859zM358 914h37v1H358zM859 914h37v1H859zM358 915h37v1H358zM859 915h37v1H859zM358 916h37v1H358zM543 916h33v1H543zM678 916h33v1H678zM859 916h37v1H859zM395 917h34v1H395zM542 917h35v1H542zM677 917h35v1H677zM825 917h34v1H825zM395 918h34v1H395zM542 918h35v1H542zM677 918h35v1H677zM825 918h34v1H825zM395 919h34v1H395zM542 919h35v1H542zM677 919h35v1H677zM825 919h34v1H825zM395 920h34v1H395zM542 920h35v1H542zM677 920h35v1H677zM825 920h34v1H825zM395 921h34v1H395zM542 921h35v1H542zM677 921h35v1H677zM825 921h34v1H825zM395 922h34v1H395zM542 922h35v1H542zM677 922h35v1H677zM825 922h34v1H825zM395 923h34v1H395zM542 923h35v1H542zM677 923h35v1H677zM825 923h34v1H825zM395 924h34v1H395zM542 924h35v1H542zM677 924h35v1H677zM825 924h34v1H825zM395 925h34v1H395zM542 925h35v1H542zM677 925h35v1H677zM825 925h34v1H825zM395 926h34v1H395zM542 926h35v1H542zM677 926h35v1H677zM825 926h34v1H825zM395 927h34v1H395zM542 927h35v1H542zM677 927h35v1H677zM825 927h34v1H825zM395 928h34v1H395zM542 928h35v1H542zM677 928h35v1H677zM825 928h34v1H825zM395 929h34v1H395zM542 929h35v1H542zM677 929h35v1H677zM825 929h34v1H825zM395 930h34v1H395zM542 930h35v1H542zM677 930h35v1H677zM825 930h34v1H825zM395 931h34v1H395zM542 931h35v1H542zM677 931h35v1H677zM825 931h34v1H825zM395 932h34v1H395zM542 932h35v1H542zM677 932h35v1H677zM825 932h34v1H825zM395 933h34v1H395zM542 933h35v1H542zM677 933h35v1H677zM825 933h34v1H825zM395 934h34v1H395zM542 934h35v1H542zM677 934h35v1H677zM825 934h34v1H825zM395 935h34v1H395zM542 935h35v1H542zM677 935h35v1H677zM825 935h34v1H825zM395 936h34v1H395zM542 936h35v1H542zM677 936h35v1H677zM825 936h34v1H825zM395 937h34v1H395zM542 937h35v1H542zM677 937h35v1H677zM825 937h34v1H825zM395 938h34v1H395zM542 938h35v1H542zM677 938h35v1H677zM825 938h34v1H825zM395 939h34v1H395zM542 939h35v1H542zM677 939h35v1H677zM825 939h34v1H825zM395 940h34v1H395zM542 940h35v1H542zM677 940h35v1H677zM825 940h34v1H825zM395 941h34v1H395zM542 941h35v1H542zM677 941h35v1H677zM825 941h34v1H825zM395 942h34v1H395zM542 942h35v1H542zM677 942h35v1H677zM825 942h34v1H825zM395 943h34v1H395zM542 943h35v1H542zM677 943h35v1H677zM825 943h34v1H825zM395 944h34v1H395zM542 944h35v1H542zM677 944h35v1H677zM825 944h34v1H825zM395 945h34v1H395zM542 945h35v1H542zM677 945h35v1H677zM825 945h34v1H825zM395 946h34v1H395zM542 946h35v1H542zM677 946h35v1H677zM825 946h34v1H825zM395 947h34v1H395zM542 947h35v1H542zM677 947h35v1H677zM825 947h34v1H825zM395 948h34v1H395zM542 948h170v1H542zM825 948h34v1H825zM395 949h34v1H395zM542 949h170v1H542zM825 949h34v1H825zM395 950h34v1H395zM543 950h169v1H543zM825 950h34v1H825zM395 951h34v1H395zM575 951h105v1H575zM825 951h34v1H825zM395 952h34v1H395zM575 952h105v1H575zM825 952h34v1H825zM395 953h34v1H395zM575 953h105v1H575zM825 953h34v1H825zM395 954h34v1H395zM575 954h105v1H575zM825 954h34v1H825zM395 955h34v1H395zM575 955h105v1H575zM825 955h34v1H825zM395 956h34v1H395zM575 956h105v1H575zM825 956h34v1H825zM395 957h34v1H395zM575 957h105v1H575zM825 957h34v1H825zM395 958h34v1H395zM575 958h105v1H575zM825 958h34v1H825zM395 959h34v1H395zM575 959h105v1H575zM825 959h34v1H825zM395 960h34v1H395zM575 960h105v1H575zM825 960h34v1H825zM395 961h34v1H395zM575 961h105v1H575zM825 961h34v1H825zM395 962h34v1H395zM575 962h105v1H575zM825 962h34v1H825zM395 963h34v1H395zM575 963h105v1H575zM825 963h34v1H825zM395 964h34v1H395zM575 964h105v1H575zM825 964h34v1H825zM395 965h34v1H395zM575 965h105v1H575zM825 965h34v1H825zM395 966h34v1H395zM575 966h105v1H575zM825 966h34v1H825zM395 967h34v1H395zM575 967h105v1H575zM825 967h34v1H825zM395 968h34v1H395zM575 968h105v1H575zM825 968h34v1H825zM395 969h34v1H395zM575 969h105v1H575zM825 969h34v1H825zM395 970h34v1H395zM575 970h105v1H575zM825 970h34v1H825zM395 971h34v1H395zM575 971h105v1H575zM825 971h34v1H825zM395 972h34v1H395zM575 972h105v1H575zM825 972h34v1H825zM395 973h34v1H395zM575 973h105v1H575zM825 973h34v1H825zM395 974h34v1H395zM575 974h105v1H575zM825 974h34v1H825zM395 975h34v1H395zM575 975h105v1H575zM825 975h34v1H825zM395 976h34v1H395zM575 976h105v1H575zM825 976h34v1H825zM395 977h34v1H395zM575 977h105v1H575zM825 977h34v1H825zM395 978h34v1H395zM575 978h105v1H575zM825 978h34v1H825zM395 979h34v1H395zM575 979h105v1H575zM825 979h34v1H825zM395 980h34v1H395zM575 980h105v1H575zM825 980h34v1H825zM395 981h34v1H395zM575 981h105v1H575zM825 981h34v1H825zM395 982h34v1H395zM575 982h104v1H575zM825 982h34v1H825zM429 983h33v1H429zM792 983h33v1H792zM429 984h33v1H429zM792 984h33v1H792zM429 985h33v1H429zM792 985h33v1H792zM429 986h33v1H429zM792 986h33v1H792zM429 987h33v1H429zM792 987h33v1H792zM429 988h33v1H429zM792 988h33v1H792zM429 989h33v1H429zM792 989h33v1H792zM429 990h33v1H429zM792 990h33v1H792zM429 991h33v1H429zM792 991h33v1H792zM429 992h33v1H429zM792 992h33v1H792zM429 993h33v1H429zM792 993h33v1H792zM429 994h33v1H429zM792 994h33v1H792zM429 995h33v1H429zM792 995h33v1H792zM429 996h33v1H429zM792 996h33v1H792zM429 997h33v1H429zM792 997h33v1H792zM429 998h33v1H429zM792 998h33v1H792zM429 999h33v1H429zM792 999h33v1H792zM429 1000h33v1H429zM792 1000h33v1H792zM429 1001h33v1H429zM792 1001h33v1H792zM429 1002h33v1H429zM792 1002h33v1H792zM429 1003h33v1H429zM792 1003h33v1H792zM429 1004h33v1H429zM792 1004h33v1H792zM429 1005h33v1H429zM792 1005h33v1H792zM429 1006h33v1H429zM792 1006h33v1H792zM429 1007h33v1H429zM792 1007h33v1H792zM429 1008h33v1H429zM792 1008h33v1H792zM429 1009h33v1H429zM792 1009h33v1H792zM429 1010h33v1H429zM792 1010h33v1H792zM429 1011h33v1H429zM792 1011h33v1H792zM429 1012h33v1H429zM792 1012h33v1H792zM429 1013h33v1H429zM792 1013h33v1H792zM429 1014h33v1H429zM792 1014h33v1H792zM429 1015h33v1H429zM792 1015h33v1H792zM429 1016h33v1H429zM792 1016h33v1H792zM429 1017h33v1H429zM792 1017h33v1H792zM429 1018h68v1H429zM757 1018h68v1H757zM462 1019h35v1H462zM757 1019h35v1H757zM462 1020h35v1H462zM757 1020h35v1H757zM462 1021h35v1H462zM757 1021h35v1H757zM462 1022h35v1H462zM757 1022h35v1H757zM462 1023h35v1H462zM757 1023h35v1H757zM462 1024h35v1H462zM757 1024h35v1H757zM462 1025h35v1H462zM757 1025h35v1H757zM462 1026h35v1H462zM757 1026h35v1H757zM462 1027h35v1H462zM757 1027h35v1H757zM462 1028h35v1H462zM757 1028h35v1H757zM462 1029h35v1H462zM757 1029h35v1H757zM462 1030h35v1H462zM757 1030h35v1H757zM462 1031h35v1H462zM757 1031h35v1H757zM462 1032h35v1H462zM757 1032h35v1H757zM462 1033h35v1H462zM757 1033h35v1H757zM462 1034h35v1H462zM757 1034h35v1H757zM462 1035h35v1H462zM757 1035h35v1H757zM462 1036h35v1H462zM757 1036h35v1H757zM462 1037h35v1H462zM757 1037h35v1H757zM462 1038h35v1H462zM757 1038h35v1H757zM462 1039h35v1H462zM757 1039h35v1H757zM462 1040h35v1H462zM757 1040h35v1H757zM462 1041h35v1H462zM757 1041h35v1H757zM462 1042h35v1H462zM757 1042h35v1H757zM462 1043h35v1H462zM757 1043h35v1H757zM462 1044h35v1H462zM757 1044h35v1H757zM462 1045h35v1H462zM757 1045h35v1H757zM462 1046h35v1H462zM757 1046h35v1H757zM462 1047h35v1H462zM757 1047h35v1H757zM462 1048h35v1H462zM757 1048h35v1H757zM462 1049h35v1H462zM757 1049h35v1H757zM462 1050h35v1H462zM757 1050h35v1H757zM462 1051h35v1H462zM757 1051h35v1H757zM462 1052h35v1H462zM757 1052h35v1H757zM462 1053h35v1H462zM757 1053h35v1H757zM497 1054h260v1H497zM497 1055h260v1H497zM497 1056h260v1H497zM497 1057h260v1H497zM497 1058h260v1H497zM497 1059h260v1H497zM497 1060h260v1H497zM497 1061h260v1H497zM497 1062h260v1H497zM497 1063h260v1H497zM497 1064h260v1H497zM497 1065h260v1H497zM497 1066h260v1H497zM497 1067h260v1H497zM497 1068h260v1H497zM497 1069h260v1H497zM497 1070h260v1H497zM497 1071h260v1H497zM497 1072h260v1H497zM497 1073h260v1H497zM497 1074h260v1H497zM497 1075h260v1H497zM497 1076h260v1H497zM497 1077h260v1H497zM497 1078h260v1H497zM497 1079h260v1H497zM497 1080h260v1H497zM497 1081h260v1H497zM497 1082h260v1H497zM497 1083h260v1H497zM497 1084h260v1H497zM497 1085h260v1H497zM497 1086h260v1H497zM497 1087h260v1H497zM497 1088h260v1H497z" fill="#000"/>
</svg>