<svg xmlns="http://www.w3.org/2000/svg" width="1254" height="1254" viewBox="0 0 1254 1254" shape-rendering="crispEdges" aria-labelledby="title desc" role="img">
  <title id="title">favicon_systems_chef_terminal_matched</title>
  <desc id="desc">SVG traced directly from the original PNG so it matches the source icon.</desc>
  <rect width="100%" height="100%" fill="#fff"/>
  <path d="M545 157h1v1H545zM581 157h2v1H581zM711 157h1v1H711zM544 158h168v1H544zM544 159h168v1H544zM544 160h168v1H544zM544 161h168v1H544zM544 162h168v1H544zM544 163h168v1H544zM544 164h168v1H544zM544 165h168v1H544zM544 166h168v1H544zM544 167h168v1H544zM544 168h168v1H544zM544 169h168v1H544zM544 170h168v1H544zM544 171h168v1H544zM544 172h168v1H544zM544 173h168v1H544zM544 174h168v1H544zM544 175h168v1H544zM544 176h168v1H544zM544 177h168v1H544zM544 178h168v1H544zM544 179h168v1H544zM544 180h168v1H544zM544 181h168v1H544zM544 182h168v1H544zM544 183h168v1H544zM544 184h168v1H544zM544 185h168v1H544zM544 186h168v1H544zM544 187h168v1H544zM544 188h168v1H544zM544 189h168v1H544zM544 190h168v1H544zM544 191h168v1H544zM544 192h168v1H544zM544 193h168v1H544zM544 194h168v1H544zM544 195h168v1H544zM544 196h168v1H544zM504 197h40v1H504zM712 197h40v1H712zM504 198h40v1H504zM712 198h40v1H712zM504 199h40v1H504zM712 199h40v1H712zM504 200h40v1H504zM712 200h40v1H712zM504 201h40v1H504zM712 201h40v1H712zM504 202h40v1H504zM712 202h40v1H712zM504 203h40v1H504zM712 203h40v1H712zM504 204h40v1H504zM712 204h40v1H712zM504 205h40v1H504zM712 205h40v1H712zM504 206h40v1H504zM712 206h40v1H712zM504 207h40v1H504zM712 207h40v1H712zM504 208h40v1H504zM712 208h40v1H712zM504 209h40v1H504zM712 209h40v1H712zM504 210h40v1H504zM712 210h40v1H712zM504 211h40v1H504zM712 211h40v1H712zM504 212h40v1H504zM712 212h40v1H712zM504 213h40v1H504zM712 213h40v1H712zM504 214h40v1H504zM712 214h40v1H712zM504 215h40v1H504zM712 215h40v1H712zM504 216h40v1H504zM712 216h40v1H712zM504 217h40v1H504zM712 217h40v1H712zM504 218h40v1H504zM712 218h40v1H712zM504 219h40v1H504zM712 219h40v1H712zM504 220h40v1H504zM712 220h40v1H712zM504 221h40v1H504zM712 221h40v1H712zM504 222h40v1H504zM712 222h40v1H712zM504 223h40v1H504zM712 223h40v1H712zM504 224h40v1H504zM712 224h40v1H712zM504 225h40v1H504zM712 225h40v1H712zM504 226h40v1H504zM712 226h40v1H712zM504 227h40v1H504zM712 227h40v1H712zM504 228h40v1H504zM712 228h40v1H712zM504 229h40v1H504zM712 229h40v1H712zM504 230h40v1H504zM712 230h40v1H712zM504 231h40v1H504zM712 231h40v1H712zM504 232h40v1H504zM712 232h40v1H712zM504 233h40v1H504zM712 233h40v1H712zM504 234h40v1H504zM712 234h40v1H712zM504 235h40v1H504zM712 235h40v1H712zM465 236h40v1H465zM751 236h40v1H751zM465 237h39v1H465zM751 237h40v1H751zM465 238h39v1H465zM751 238h40v1H751zM465 239h39v1H465zM751 239h40v1H751zM465 240h39v1H465zM751 240h40v1H751zM465 241h39v1H465zM751 241h40v1H751zM465 242h39v1H465zM751 242h40v1H751zM465 243h39v1H465zM751 243h40v1H751zM465 244h39v1H465zM751 244h40v1H751zM465 245h39v1H465zM751 245h40v1H751zM465 246h39v1H465zM751 246h40v1H751zM465 247h39v1H465zM751 247h40v1H751zM465 248h39v1H465zM751 248h40v1H751zM465 249h39v1H465zM751 249h40v1H751zM465 250h39v1H465zM751 250h40v1H751zM465 251h39v1H465zM751 251h40v1H751zM465 252h39v1H465zM751 252h40v1H751zM465 253h39v1H465zM751 253h40v1H751zM465 254h39v1H465zM751 254h40v1H751zM465 255h39v1H465zM751 255h40v1H751zM465 256h39v1H465zM751 256h40v1H751zM465 257h39v1H465zM751 257h40v1H751zM465 258h39v1H465zM751 258h40v1H751zM465 259h39v1H465zM751 259h40v1H751zM465 260h39v1H465zM751 260h40v1H751zM465 261h39v1H465zM751 261h40v1H751zM465 262h39v1H465zM751 262h40v1H751zM465 263h39v1H465zM751 263h40v1H751zM465 264h39v1H465zM751 264h40v1H751zM465 265h39v1H465zM751 265h40v1H751zM465 266h39v1H465zM751 266h40v1H751zM465 267h39v1H465zM751 267h40v1H751zM465 268h39v1H465zM751 268h40v1H751zM465 269h39v1H465zM751 269h40v1H751zM465 270h39v1H465zM751 270h40v1H751zM465 271h39v1H465zM751 271h40v1H751zM465 272h39v1H465zM751 272h40v1H751zM465 273h39v1H465zM751 273h40v1H751zM465 274h39v1H465zM751 274h40v1H751zM336 275h89v1H336zM465 275h39v1H465zM751 275h40v1H751zM831 275h88v1H831zM336 276h89v1H336zM465 276h39v1H465zM751 276h40v1H751zM831 276h88v1H831zM336 277h89v1H336zM465 277h39v1H465zM751 277h40v1H751zM831 277h88v1H831zM336 278h89v1H336zM465 278h39v1H465zM751 278h40v1H751zM831 278h88v1H831zM336 279h89v1H336zM465 279h39v1H465zM751 279h40v1H751zM831 279h88v1H831zM336 280h89v1H336zM465 280h39v1H465zM751 280h40v1H751zM831 280h88v1H831zM336 281h89v1H336zM465 281h39v1H465zM751 281h40v1H751zM831 281h88v1H831zM336 282h89v1H336zM465 282h39v1H465zM751 282h40v1H751zM831 282h88v1H831zM336 283h89v1H336zM465 283h39v1H465zM751 283h40v1H751zM831 283h88v1H831zM336 284h89v1H336zM465 284h39v1H465zM751 284h40v1H751zM831 284h88v1H831zM336 285h89v1H336zM465 285h39v1H465zM751 285h40v1H751zM831 285h88v1H831zM336 286h89v1H336zM465 286h39v1H465zM751 286h40v1H751zM831 286h88v1H831zM336 287h89v1H336zM465 287h39v1H465zM751 287h40v1H751zM831 287h88v1H831zM336 288h89v1H336zM465 288h39v1H465zM751 288h40v1H751zM831 288h88v1H831zM336 289h89v1H336zM465 289h39v1H465zM751 289h40v1H751zM831 289h88v1H831zM336 290h89v1H336zM465 290h39v1H465zM751 290h40v1H751zM831 290h88v1H831zM336 291h89v1H336zM465 291h39v1H465zM751 291h40v1H751zM831 291h88v1H831zM336 292h89v1H336zM465 292h39v1H465zM751 292h40v1H751zM831 292h88v1H831zM336 293h89v1H336zM465 293h39v1H465zM751 293h40v1H751zM831 293h88v1H831zM336 294h89v1H336zM465 294h39v1H465zM751 294h40v1H751zM831 294h88v1H831zM336 295h89v1H336zM465 295h39v1H465zM751 295h40v1H751zM831 295h88v1H831zM336 296h89v1H336zM465 296h39v1H465zM751 296h40v1H751zM831 296h88v1H831zM336 297h89v1H336zM465 297h39v1H465zM751 297h40v1H751zM831 297h88v1H831zM336 298h89v1H336zM465 298h39v1H465zM751 298h40v1H751zM831 298h88v1H831zM336 299h89v1H336zM465 299h39v1H465zM751 299h40v1H751zM831 299h88v1H831zM336 300h89v1H336zM465 300h39v1H465zM751 300h40v1H751zM831 300h88v1H831zM336 301h89v1H336zM465 301h39v1H465zM751 301h40v1H751zM831 301h88v1H831zM336 302h89v1H336zM465 302h39v1H465zM751 302h40v1H751zM831 302h88v1H831zM336 303h89v1H336zM465 303h39v1H465zM751 303h40v1H751zM831 303h88v1H831zM336 304h89v1H336zM465 304h39v1H465zM751 304h40v1H751zM831 304h88v1H831zM336 305h88v1H336zM465 305h39v1H465zM751 305h40v1H751zM831 305h88v1H831zM336 306h88v1H336zM465 306h39v1H465zM751 306h40v1H751zM831 306h88v1H831zM336 307h88v1H336zM465 307h39v1H465zM751 307h40v1H751zM831 307h88v1H831zM336 308h88v1H336zM465 308h39v1H465zM751 308h40v1H751zM831 308h88v1H831zM336 309h88v1H336zM465 309h39v1H465zM751 309h40v1H751zM831 309h88v1H831zM336 310h88v1H336zM465 310h39v1H465zM751 310h40v1H751zM831 310h88v1H831zM336 311h88v1H336zM465 311h39v1H465zM751 311h40v1H751zM831 311h88v1H831zM336 312h88v1H336zM465 312h39v1H465zM751 312h40v1H751zM831 312h88v1H831zM336 313h88v1H336zM464 313h40v1H464zM751 313h40v1H751zM831 313h88v1H831zM336 314h88v1H336zM465 314h39v1H465zM752 314h38v1H752zM831 314h89v1H831zM255 315h81v1H255zM424 315h40v1H424zM791 315h40v1H791zM919 315h81v1H919zM255 316h81v1H255zM424 316h40v1H424zM791 316h40v1H791zM919 316h81v1H919zM255 317h81v1H255zM424 317h40v1H424zM791 317h40v1H791zM919 317h81v1H919zM255 318h81v1H255zM424 318h40v1H424zM791 318h40v1H791zM919 318h81v1H919zM255 319h81v1H255zM424 319h40v1H424zM791 319h40v1H791zM919 319h81v1H919zM255 320h81v1H255zM424 320h40v1H424zM791 320h40v1H791zM919 320h81v1H919zM255 321h81v1H255zM424 321h40v1H424zM791 321h40v1H791zM919 321h81v1H919zM255 322h81v1H255zM424 322h40v1H424zM791 322h40v1H791zM919 322h81v1H919zM255 323h81v1H255zM424 323h40v1H424zM791 323h40v1H791zM919 323h81v1H919zM255 324h81v1H255zM424 324h40v1H424zM791 324h40v1H791zM919 324h81v1H919zM255 325h81v1H255zM424 325h40v1H424zM791 325h40v1H791zM919 325h81v1H919zM255 326h81v1H255zM424 326h40v1H424zM791 326h40v1H791zM919 326h81v1H919zM255 327h81v1H255zM424 327h40v1H424zM791 327h40v1H791zM919 327h81v1H919zM255 328h81v1H255zM424 328h40v1H424zM791 328h40v1H791zM919 328h81v1H919zM255 329h81v1H255zM424 329h40v1H424zM791 329h40v1H791zM919 329h81v1H919zM255 330h81v1H255zM424 330h40v1H424zM791 330h40v1H791zM919 330h81v1H919zM255 331h81v1H255zM424 331h40v1H424zM791 331h40v1H791zM919 331h81v1H919zM255 332h81v1H255zM424 332h40v1H424zM791 332h40v1H791zM919 332h81v1H919zM255 333h81v1H255zM424 333h40v1H424zM791 333h40v1H791zM919 333h81v1H919zM255 334h81v1H255zM424 334h40v1H424zM791 334h40v1H791zM919 334h81v1H919zM255 335h81v1H255zM424 335h40v1H424zM791 335h40v1H791zM919 335h81v1H919zM255 336h81v1H255zM424 336h40v1H424zM791 336h40v1H791zM919 336h81v1H919zM255 337h81v1H255zM424 337h40v1H424zM791 337h40v1H791zM919 337h81v1H919zM255 338h81v1H255zM424 338h41v1H424zM791 338h40v1H791zM919 338h81v1H919zM255 339h81v1H255zM424 339h41v1H424zM791 339h40v1H791zM919 339h81v1H919zM255 340h81v1H255zM424 340h41v1H424zM791 340h40v1H791zM919 340h81v1H919zM255 341h81v1H255zM424 341h41v1H424zM791 341h40v1H791zM919 341h81v1H919zM255 342h81v1H255zM424 342h41v1H424zM791 342h40v1H791zM919 342h81v1H919zM255 343h81v1H255zM424 343h41v1H424zM791 343h40v1H791zM919 343h81v1H919zM255 344h81v1H255zM424 344h41v1H424zM791 344h40v1H791zM919 344h81v1H919zM255 345h81v1H255zM424 345h41v1H424zM791 345h40v1H791zM919 345h81v1H919zM255 346h81v1H255zM424 346h40v1H424zM791 346h40v1H791zM919 346h81v1H919zM255 347h81v1H255zM424 347h40v1H424zM791 347h40v1H791zM919 347h81v1H919zM255 348h81v1H255zM424 348h40v1H424zM791 348h40v1H791zM919 348h81v1H919zM255 349h81v1H255zM424 349h40v1H424zM791 349h40v1H791zM919 349h81v1H919zM255 350h81v1H255zM424 350h40v1H424zM791 350h40v1H791zM919 350h81v1H919zM255 351h81v1H255zM424 351h40v1H424zM791 351h40v1H791zM919 351h81v1H919zM255 352h81v1H255zM424 352h40v1H424zM791 352h40v1H791zM919 352h81v1H919zM255 353h80v1H255zM425 353h39v1H425zM791 353h40v1H791zM919 353h81v1H919zM215 354h40v1H215zM999 354h40v1H999zM215 355h40v1H215zM1000 355h39v1H1000zM215 356h40v1H215zM1000 356h39v1H1000zM215 357h40v1H215zM1000 357h39v1H1000zM215 358h40v1H215zM1000 358h39v1H1000zM215 359h40v1H215zM1000 359h39v1H1000zM215 360h40v1H215zM1000 360h39v1H1000zM215 361h40v1H215zM1000 361h39v1H1000zM215 362h40v1H215zM1000 362h39v1H1000zM215 363h40v1H215zM1000 363h39v1H1000zM215 364h40v1H215zM1000 364h39v1H1000zM215 365h40v1H215zM1000 365h39v1H1000zM215 366h40v1H215zM1000 366h39v1H1000zM215 367h40v1H215zM999 367h40v1H999zM215 368h40v1H215zM999 368h40v1H999zM215 369h40v1H215zM999 369h40v1H999zM215 370h40v1H215zM999 370h40v1H999zM215 371h40v1H215zM999 371h40v1H999zM215 372h40v1H215zM999 372h40v1H999zM215 373h40v1H215zM999 373h40v1H999zM215 374h40v1H215zM999 374h40v1H999zM215 375h40v1H215zM999 375h40v1H999zM215 376h40v1H215zM999 376h40v1H999zM215 377h40v1H215zM999 377h40v1H999zM215 378h40v1H215zM999 378h40v1H999zM215 379h40v1H215zM999 379h40v1H999zM215 380h40v1H215zM999 380h40v1H999zM215 381h40v1H215zM999 381h40v1H999zM215 382h40v1H215zM999 382h40v1H999zM215 383h40v1H215zM999 383h40v1H999zM215 384h40v1H215zM999 384h40v1H999zM215 385h40v1H215zM999 385h40v1H999zM215 386h40v1H215zM999 386h40v1H999zM215 387h40v1H215zM1000 387h39v1H1000zM215 388h40v1H215zM1000 388h39v1H1000zM215 389h40v1H215zM1000 389h39v1H1000zM215 390h40v1H215zM1000 390h39v1H1000zM215 391h40v1H215zM1000 391h39v1H1000zM215 392h40v1H215zM1000 392h39v1H1000zM215 393h40v1H215zM1000 393h39v1H1000zM175 394h40v1H175zM1039 394h40v1H1039zM175 395h40v1H175zM1039 395h40v1H1039zM175 396h40v1H175zM1039 396h40v1H1039zM175 397h40v1H175zM1039 397h40v1H1039zM175 398h40v1H175zM1039 398h40v1H1039zM175 399h40v1H175zM1039 399h40v1H1039zM175 400h40v1H175zM1039 400h40v1H1039zM175 401h40v1H175zM1039 401h40v1H1039zM175 402h40v1H175zM1039 402h40v1H1039zM175 403h40v1H175zM1039 403h40v1H1039zM175 404h40v1H175zM1039 404h40v1H1039zM175 405h40v1H175zM1039 405h40v1H1039zM175 406h40v1H175zM1039 406h40v1H1039zM175 407h40v1H175zM1039 407h40v1H1039zM175 408h40v1H175zM1039 408h40v1H1039zM175 409h40v1H175zM1039 409h40v1H1039zM175 410h40v1H175zM1039 410h40v1H1039zM175 411h40v1H175zM1039 411h40v1H1039zM175 412h40v1H175zM1039 412h40v1H1039zM175 413h40v1H175zM1039 413h40v1H1039zM175 414h40v1H175zM1039 414h40v1H1039zM175 415h40v1H175zM1039 415h40v1H1039zM175 416h40v1H175zM1039 416h40v1H1039zM175 417h40v1H175zM1039 417h40v1H1039zM175 418h40v1H175zM1039 418h40v1H1039zM175 419h40v1H175zM1039 419h40v1H1039zM175 420h40v1H175zM1039 420h40v1H1039zM175 421h40v1H175zM1039 421h40v1H1039zM175 422h40v1H175zM1039 422h40v1H1039zM175 423h40v1H175zM1039 423h40v1H1039zM175 424h40v1H175zM1039 424h40v1H1039zM175 425h40v1H175zM1039 425h40v1H1039zM175 426h40v1H175zM1039 426h40v1H1039zM175 427h40v1H175zM1039 427h40v1H1039zM175 428h40v1H175zM1039 428h40v1H1039zM175 429h40v1H175zM1039 429h40v1H1039zM175 430h40v1H175zM1039 430h40v1H1039zM175 431h40v1H175zM1039 431h40v1H1039zM175 432h40v1H175zM1039 432h40v1H1039zM175 433h40v1H175zM1039 433h40v1H1039zM175 434h40v1H175zM1039 434h40v1H1039zM175 435h40v1H175zM1039 435h40v1H1039zM175 436h40v1H175zM1039 436h40v1H1039zM175 437h40v1H175zM1039 437h40v1H1039zM175 438h40v1H175zM1039 438h40v1H1039zM175 439h40v1H175zM1039 439h40v1H1039zM175 440h40v1H175zM1039 440h40v1H1039zM175 441h40v1H175zM1039 441h40v1H1039zM175 442h40v1H175zM1039 442h40v1H1039zM175 443h40v1H175zM1039 443h40v1H1039zM175 444h40v1H175zM1039 444h40v1H1039zM175 445h40v1H175zM1039 445h40v1H1039zM175 446h40v1H175zM1039 446h40v1H1039zM175 447h40v1H175zM1039 447h40v1H1039zM175 448h40v1H175zM1039 448h40v1H1039zM175 449h40v1H175zM1039 449h40v1H1039zM175 450h40v1H175zM1039 450h40v1H1039zM175 451h40v1H175zM1039 451h40v1H1039zM175 452h40v1H175zM1039 452h40v1H1039zM175 453h40v1H175zM1039 453h40v1H1039zM175 454h40v1H175zM1039 454h40v1H1039zM175 455h40v1H175zM1039 455h40v1H1039zM175 456h40v1H175zM1039 456h40v1H1039zM175 457h40v1H175zM1039 457h40v1H1039zM175 458h40v1H175zM1039 458h40v1H1039zM175 459h40v1H175zM1039 459h40v1H1039zM175 460h40v1H175zM1039 460h40v1H1039zM175 461h40v1H175zM1039 461h40v1H1039zM175 462h40v1H175zM1039 462h40v1H1039zM175 463h40v1H175zM1039 463h40v1H1039zM175 464h40v1H175zM1039 464h40v1H1039zM175 465h40v1H175zM1039 465h40v1H1039zM175 466h40v1H175zM1039 466h40v1H1039zM175 467h40v1H175zM1039 467h40v1H1039zM175 468h40v1H175zM1039 468h40v1H1039zM175 469h40v1H175zM1039 469h40v1H1039zM175 470h40v1H175zM1039 470h40v1H1039zM175 471h40v1H175zM1039 471h40v1H1039zM175 472h40v1H175zM1039 472h40v1H1039zM175 473h40v1H175zM1039 473h40v1H1039zM175 474h40v1H175zM1039 474h40v1H1039zM175 475h40v1H175zM1039 475h40v1H1039zM175 476h40v1H175zM1039 476h40v1H1039zM175 477h40v1H175zM1039 477h40v1H1039zM175 478h40v1H175zM1039 478h40v1H1039zM175 479h40v1H175zM1039 479h40v1H1039zM175 480h40v1H175zM1039 480h40v1H1039zM175 481h40v1H175zM1039 481h40v1H1039zM175 482h40v1H175zM1039 482h40v1H1039zM175 483h40v1H175zM1039 483h40v1H1039zM175 484h40v1H175zM1039 484h40v1H1039zM175 485h40v1H175zM1039 485h40v1H1039zM175 486h40v1H175zM1039 486h40v1H1039zM175 487h40v1H175zM1039 487h40v1H1039zM175 488h40v1H175zM1039 488h40v1H1039zM175 489h40v1H175zM1039 489h40v1H1039zM175 490h40v1H175zM1039 490h40v1H1039zM175 491h40v1H175zM1039 491h40v1H1039zM175 492h40v1H175zM1039 492h40v1H1039zM175 493h40v1H175zM1039 493h40v1H1039zM175 494h40v1H175zM1039 494h40v1H1039zM175 495h40v1H175zM1039 495h40v1H1039zM175 496h40v1H175zM1039 496h40v1H1039zM175 497h40v1H175zM1039 497h40v1H1039zM175 498h40v1H175zM1039 498h40v1H1039zM175 499h40v1H175zM1039 499h40v1H1039zM175 500h40v1H175zM1039 500h40v1H1039zM175 501h40v1H175zM1039 501h40v1H1039zM175 502h40v1H175zM1039 502h40v1H1039zM175 503h40v1H175zM1039 503h40v1H1039zM175 504h40v1H175zM1039 504h40v1H1039zM175 505h40v1H175zM1039 505h40v1H1039zM175 506h40v1H175zM1039 506h40v1H1039zM175 507h40v1H175zM1039 507h40v1H1039zM175 508h40v1H175zM1039 508h40v1H1039zM175 509h40v1H175zM1039 509h40v1H1039zM175 510h40v1H175zM1039 510h40v1H1039zM175 511h40v1H175zM1039 511h40v1H1039zM175 512h40v1H175zM1039 512h40v1H1039zM175 513h40v1H175zM1039 513h40v1H1039zM175 514h40v1H175zM1039 514h40v1H1039zM175 515h40v1H175zM1039 515h40v1H1039zM175 516h40v1H175zM1039 516h40v1H1039zM175 517h40v1H175zM1039 517h40v1H1039zM175 518h40v1H175zM1039 518h40v1H1039zM175 519h40v1H175zM1039 519h40v1H1039zM175 520h40v1H175zM1039 520h40v1H1039zM175 521h40v1H175zM1039 521h40v1H1039zM175 522h40v1H175zM1039 522h40v1H1039zM175 523h40v1H175zM1039 523h40v1H1039zM175 524h40v1H175zM1039 524h40v1H1039zM175 525h40v1H175zM1039 525h40v1H1039zM175 526h40v1H175zM1039 526h40v1H1039zM175 527h40v1H175zM1039 527h40v1H1039zM175 528h40v1H175zM1039 528h40v1H1039zM175 529h40v1H175zM1039 529h40v1H1039zM175 530h40v1H175zM1039 530h40v1H1039zM175 531h40v1H175zM1039 531h40v1H1039zM175 532h40v1H175zM1039 532h40v1H1039zM175 533h40v1H175zM1039 533h40v1H1039zM175 534h40v1H175zM1039 534h40v1H1039zM175 535h40v1H175zM1039 535h40v1H1039zM175 536h40v1H175zM1039 536h40v1H1039zM175 537h40v1H175zM1039 537h40v1H1039zM175 538h40v1H175zM1039 538h40v1H1039zM175 539h40v1H175zM1039 539h40v1H1039zM175 540h40v1H175zM1039 540h40v1H1039zM175 541h40v1H175zM1039 541h40v1H1039zM175 542h40v1H175zM1039 542h40v1H1039zM175 543h40v1H175zM1039 543h40v1H1039zM175 544h40v1H175zM1039 544h40v1H1039zM175 545h40v1H175zM1039 545h40v1H1039zM175 546h40v1H175zM1039 546h40v1H1039zM175 547h40v1H175zM1039 547h40v1H1039zM175 548h40v1H175zM1039 548h40v1H1039zM175 549h40v1H175zM1039 549h40v1H1039zM175 550h40v1H175zM1039 550h40v1H1039zM175 551h40v1H175zM1039 551h40v1H1039zM215 552h40v1H215zM464 552h40v1H464zM751 552h40v1H751zM999 552h40v1H999zM215 553h40v1H215zM465 553h39v1H465zM751 553h40v1H751zM1000 553h39v1H1000zM215 554h40v1H215zM465 554h39v1H465zM751 554h40v1H751zM1000 554h39v1H1000zM215 555h40v1H215zM465 555h39v1H465zM751 555h40v1H751zM1000 555h39v1H1000zM215 556h40v1H215zM465 556h39v1H465zM751 556h40v1H751zM999 556h40v1H999zM215 557h40v1H215zM465 557h39v1H465zM751 557h40v1H751zM999 557h40v1H999zM215 558h40v1H215zM464 558h40v1H464zM751 558h40v1H751zM999 558h40v1H999zM215 559h40v1H215zM464 559h40v1H464zM751 559h40v1H751zM999 559h40v1H999zM215 560h40v1H215zM464 560h40v1H464zM751 560h40v1H751zM999 560h40v1H999zM215 561h40v1H215zM464 561h40v1H464zM751 561h40v1H751zM999 561h40v1H999zM215 562h40v1H215zM465 562h39v1H465zM751 562h40v1H751zM999 562h40v1H999zM215 563h40v1H215zM465 563h39v1H465zM751 563h40v1H751zM999 563h40v1H999zM215 564h40v1H215zM465 564h39v1H465zM751 564h40v1H751zM999 564h40v1H999zM215 565h40v1H215zM465 565h39v1H465zM751 565h40v1H751zM999 565h40v1H999zM215 566h40v1H215zM465 566h39v1H465zM751 566h40v1H751zM999 566h40v1H999zM215 567h40v1H215zM465 567h39v1H465zM751 567h40v1H751zM999 567h40v1H999zM215 568h40v1H215zM465 568h39v1H465zM751 568h40v1H751zM999 568h40v1H999zM215 569h40v1H215zM465 569h39v1H465zM751 569h40v1H751zM999 569h40v1H999zM215 570h40v1H215zM465 570h39v1H465zM751 570h40v1H751zM999 570h40v1H999zM215 571h40v1H215zM465 571h39v1H465zM751 571h40v1H751zM999 571h40v1H999zM215 572h40v1H215zM465 572h39v1H465zM751 572h40v1H751zM999 572h40v1H999zM215 573h40v1H215zM465 573h39v1H465zM751 573h40v1H751zM999 573h40v1H999zM215 574h40v1H215zM465 574h39v1H465zM751 574h40v1H751zM999 574h40v1H999zM215 575h40v1H215zM465 575h39v1H465zM751 575h40v1H751zM999 575h40v1H999zM215 576h40v1H215zM465 576h39v1H465zM751 576h40v1H751zM999 576h40v1H999zM215 577h40v1H215zM465 577h39v1H465zM751 577h40v1H751zM999 577h40v1H999zM215 578h40v1H215zM465 578h39v1H465zM751 578h40v1H751zM999 578h40v1H999zM215 579h40v1H215zM465 579h39v1H465zM751 579h40v1H751zM999 579h40v1H999zM215 580h40v1H215zM465 580h39v1H465zM751 580h40v1H751zM999 580h40v1H999zM215 581h40v1H215zM465 581h39v1H465zM751 581h40v1H751zM999 581h40v1H999zM215 582h40v1H215zM465 582h39v1H465zM607 582h40v1H607zM751 582h40v1H751zM999 582h40v1H999zM215 583h40v1H215zM465 583h39v1H465zM607 583h40v1H607zM751 583h40v1H751zM999 583h40v1H999zM215 584h40v1H215zM465 584h39v1H465zM607 584h40v1H607zM751 584h40v1H751zM999 584h40v1H999zM215 585h40v1H215zM465 585h39v1H465zM607 585h40v1H607zM751 585h40v1H751zM999 585h40v1H999zM215 586h40v1H215zM465 586h39v1H465zM607 586h40v1H607zM751 586h40v1H751zM999 586h40v1H999zM215 587h40v1H215zM465 587h39v1H465zM607 587h40v1H607zM751 587h40v1H751zM1000 587h39v1H1000zM215 588h40v1H215zM465 588h39v1H465zM607 588h40v1H607zM751 588h40v1H751zM1000 588h39v1H1000zM215 589h40v1H215zM465 589h39v1H465zM607 589h40v1H607zM751 589h40v1H751zM1000 589h39v1H1000zM215 590h40v1H215zM465 590h39v1H465zM607 590h40v1H607zM751 590h40v1H751zM1000 590h39v1H1000zM215 591h40v1H215zM465 591h39v1H465zM607 591h40v1H607zM751 591h40v1H751zM999 591h40v1H999zM255 592h81v1H255zM465 592h39v1H465zM607 592h40v1H607zM751 592h40v1H751zM919 592h81v1H919zM255 593h80v1H255zM465 593h39v1H465zM607 593h40v1H607zM751 593h40v1H751zM919 593h81v1H919zM255 594h81v1H255zM465 594h39v1H465zM607 594h40v1H607zM751 594h40v1H751zM919 594h81v1H919zM255 595h81v1H255zM465 595h39v1H465zM607 595h40v1H607zM751 595h40v1H751zM919 595h81v1H919zM255 596h81v1H255zM465 596h39v1H465zM607 596h40v1H607zM751 596h40v1H751zM919 596h81v1H919zM255 597h81v1H255zM465 597h39v1H465zM607 597h40v1H607zM751 597h40v1H751zM919 597h81v1H919zM255 598h81v1H255zM465 598h39v1H465zM607 598h40v1H607zM751 598h40v1H751zM919 598h81v1H919zM255 599h81v1H255zM465 599h39v1H465zM607 599h40v1H607zM751 599h40v1H751zM919 599h81v1H919zM255 600h81v1H255zM465 600h39v1H465zM607 600h40v1H607zM751 600h40v1H751zM919 600h81v1H919zM255 601h81v1H255zM465 601h39v1H465zM607 601h40v1H607zM751 601h40v1H751zM919 601h81v1H919zM255 602h81v1H255zM465 602h39v1H465zM607 602h40v1H607zM751 602h40v1H751zM919 602h81v1H919zM255 603h81v1H255zM465 603h39v1H465zM607 603h40v1H607zM751 603h40v1H751zM919 603h81v1H919zM255 604h81v1H255zM465 604h39v1H465zM607 604h40v1H607zM751 604h40v1H751zM919 604h81v1H919zM255 605h81v1H255zM465 605h39v1H465zM607 605h40v1H607zM751 605h40v1H751zM919 605h81v1H919zM255 606h81v1H255zM465 606h39v1H465zM607 606h40v1H607zM751 606h40v1H751zM919 606h81v1H919zM255 607h81v1H255zM465 607h39v1H465zM607 607h40v1H607zM751 607h40v1H751zM919 607h81v1H919zM255 608h81v1H255zM465 608h39v1H465zM607 608h40v1H607zM751 608h40v1H751zM919 608h81v1H919zM255 609h81v1H255zM465 609h39v1H465zM607 609h40v1H607zM751 609h40v1H751zM919 609h81v1H919zM255 610h81v1H255zM465 610h39v1H465zM607 610h40v1H607zM751 610h40v1H751zM919 610h81v1H919zM255 611h81v1H255zM465 611h39v1H465zM607 611h40v1H607zM751 611h40v1H751zM919 611h81v1H919zM255 612h81v1H255zM465 612h39v1H465zM607 612h40v1H607zM751 612h40v1H751zM919 612h81v1H919zM255 613h81v1H255zM465 613h39v1H465zM607 613h40v1H607zM751 613h40v1H751zM919 613h81v1H919zM255 614h81v1H255zM465 614h39v1H465zM607 614h40v1H607zM751 614h40v1H751zM919 614h81v1H919zM255 615h81v1H255zM465 615h39v1H465zM607 615h40v1H607zM751 615h40v1H751zM919 615h81v1H919zM255 616h81v1H255zM465 616h39v1H465zM607 616h40v1H607zM751 616h40v1H751zM919 616h81v1H919zM255 617h81v1H255zM465 617h39v1H465zM607 617h40v1H607zM751 617h40v1H751zM919 617h81v1H919zM255 618h81v1H255zM465 618h39v1H465zM607 618h40v1H607zM751 618h40v1H751zM919 618h81v1H919zM255 619h81v1H255zM465 619h39v1H465zM607 619h40v1H607zM751 619h40v1H751zM919 619h81v1H919zM255 620h81v1H255zM465 620h39v1H465zM607 620h40v1H607zM751 620h40v1H751zM919 620h81v1H919zM255 621h81v1H255zM465 621h39v1H465zM607 621h40v1H607zM751 621h40v1H751zM919 621h81v1H919zM255 622h81v1H255zM465 622h39v1H465zM607 622h40v1H607zM751 622h40v1H751zM919 622h81v1H919zM255 623h81v1H255zM465 623h39v1H465zM607 623h40v1H607zM751 623h40v1H751zM919 623h81v1H919zM255 624h81v1H255zM465 624h39v1H465zM607 624h40v1H607zM751 624h40v1H751zM919 624h81v1H919zM255 625h81v1H255zM465 625h39v1H465zM607 625h40v1H607zM751 625h40v1H751zM919 625h81v1H919zM255 626h81v1H255zM465 626h39v1H465zM607 626h40v1H607zM751 626h40v1H751zM919 626h81v1H919zM255 627h81v1H255zM465 627h39v1H465zM607 627h40v1H607zM751 627h40v1H751zM919 627h81v1H919zM255 628h81v1H255zM465 628h39v1H465zM607 628h40v1H607zM751 628h40v1H751zM919 628h81v1H919zM255 629h81v1H255zM465 629h39v1H465zM607 629h40v1H607zM751 629h40v1H751zM919 629h81v1H919zM255 630h81v1H255zM465 630h39v1H465zM607 630h40v1H607zM751 630h40v1H751zM919 630h81v1H919zM336 631h39v1H336zM465 631h39v1H465zM607 631h40v1H607zM751 631h40v1H751zM879 631h40v1H879zM336 632h40v1H336zM465 632h39v1H465zM607 632h40v1H607zM751 632h40v1H751zM879 632h40v1H879zM336 633h40v1H336zM465 633h39v1H465zM607 633h40v1H607zM751 633h40v1H751zM879 633h40v1H879zM336 634h40v1H336zM465 634h39v1H465zM607 634h40v1H607zM751 634h40v1H751zM879 634h40v1H879zM336 635h40v1H336zM465 635h39v1H465zM607 635h40v1H607zM751 635h40v1H751zM879 635h40v1H879zM336 636h40v1H336zM465 636h39v1H465zM607 636h40v1H607zM751 636h40v1H751zM879 636h40v1H879zM336 637h40v1H336zM465 637h39v1H465zM607 637h40v1H607zM751 637h40v1H751zM879 637h40v1H879zM336 638h40v1H336zM465 638h39v1H465zM607 638h40v1H607zM751 638h40v1H751zM879 638h40v1H879zM336 639h40v1H336zM465 639h39v1H465zM607 639h40v1H607zM751 639h40v1H751zM879 639h40v1H879zM336 640h40v1H336zM465 640h39v1H465zM607 640h40v1H607zM751 640h40v1H751zM879 640h40v1H879zM336 641h40v1H336zM465 641h39v1H465zM607 641h40v1H607zM751 641h40v1H751zM879 641h40v1H879zM336 642h40v1H336zM465 642h39v1H465zM607 642h40v1H607zM751 642h40v1H751zM879 642h40v1H879zM336 643h40v1H336zM465 643h39v1H465zM607 643h40v1H607zM751 643h40v1H751zM879 643h40v1H879zM336 644h40v1H336zM465 644h39v1H465zM607 644h40v1H607zM751 644h40v1H751zM879 644h40v1H879zM336 645h40v1H336zM465 645h39v1H465zM607 645h40v1H607zM751 645h40v1H751zM879 645h40v1H879zM336 646h40v1H336zM465 646h39v1H465zM607 646h40v1H607zM751 646h40v1H751zM879 646h40v1H879zM336 647h40v1H336zM465 647h39v1H465zM607 647h40v1H607zM751 647h40v1H751zM879 647h40v1H879zM336 648h40v1H336zM465 648h39v1H465zM607 648h40v1H607zM751 648h40v1H751zM879 648h40v1H879zM336 649h40v1H336zM465 649h39v1H465zM607 649h40v1H607zM751 649h40v1H751zM879 649h40v1H879zM336 650h40v1H336zM465 650h39v1H465zM607 650h40v1H607zM751 650h40v1H751zM879 650h40v1H879zM336 651h40v1H336zM465 651h39v1H465zM607 651h40v1H607zM751 651h40v1H751zM879 651h40v1H879zM336 652h40v1H336zM465 652h39v1H465zM607 652h40v1H607zM751 652h40v1H751zM879 652h40v1H879zM336 653h40v1H336zM465 653h39v1H465zM607 653h40v1H607zM751 653h40v1H751zM879 653h40v1H879zM336 654h40v1H336zM465 654h39v1H465zM607 654h40v1H607zM751 654h40v1H751zM879 654h40v1H879zM336 655h40v1H336zM464 655h40v1H464zM607 655h40v1H607zM751 655h40v1H751zM879 655h40v1H879zM336 656h40v1H336zM464 656h40v1H464zM607 656h40v1H607zM751 656h40v1H751zM879 656h40v1H879zM336 657h40v1H336zM464 657h40v1H464zM607 657h40v1H607zM751 657h40v1H751zM879 657h40v1H879zM336 658h40v1H336zM464 658h40v1H464zM607 658h40v1H607zM751 658h40v1H751zM879 658h40v1H879zM336 659h40v1H336zM465 659h39v1H465zM607 659h40v1H607zM751 659h40v1H751zM879 659h40v1H879zM336 660h40v1H336zM465 660h39v1H465zM607 660h40v1H607zM751 660h40v1H751zM879 660h40v1H879zM336 661h40v1H336zM465 661h39v1H465zM607 661h40v1H607zM751 661h40v1H751zM879 661h40v1H879zM336 662h40v1H336zM465 662h39v1H465zM607 662h40v1H607zM751 662h40v1H751zM879 662h40v1H879zM336 663h40v1H336zM465 663h39v1H465zM607 663h40v1H607zM751 663h40v1H751zM879 663h40v1H879zM336 664h40v1H336zM465 664h39v1H465zM607 664h40v1H607zM751 664h40v1H751zM879 664h40v1H879zM336 665h40v1H336zM465 665h39v1H465zM607 665h40v1H607zM751 665h40v1H751zM879 665h40v1H879zM336 666h40v1H336zM465 666h39v1H465zM607 666h40v1H607zM751 666h40v1H751zM879 666h40v1H879zM336 667h40v1H336zM464 667h40v1H464zM607 667h40v1H607zM751 667h40v1H751zM879 667h40v1H879zM336 668h40v1H336zM464 668h40v1H464zM607 668h40v1H607zM751 668h40v1H751zM879 668h40v1H879zM336 669h40v1H336zM464 669h40v1H464zM607 669h40v1H607zM751 669h40v1H751zM879 669h40v1H879zM336 670h40v1H336zM464 670h40v1H464zM607 670h40v1H607zM751 670h40v1H751zM879 670h40v1H879zM336 671h40v1H336zM464 671h40v1H464zM607 671h40v1H607zM751 671h40v1H751zM879 671h40v1H879zM336 672h40v1H336zM464 672h40v1H464zM607 672h40v1H607zM751 672h40v1H751zM879 672h40v1H879zM336 673h40v1H336zM464 673h40v1H464zM607 673h40v1H607zM751 673h40v1H751zM879 673h40v1H879zM336 674h40v1H336zM464 674h40v1H464zM607 674h40v1H607zM751 674h40v1H751zM879 674h40v1H879zM336 675h40v1H336zM465 675h39v1H465zM607 675h40v1H607zM751 675h40v1H751zM879 675h40v1H879zM336 676h40v1H336zM465 676h39v1H465zM607 676h40v1H607zM751 676h40v1H751zM879 676h40v1H879zM336 677h40v1H336zM465 677h39v1H465zM607 677h40v1H607zM751 677h40v1H751zM879 677h40v1H879zM336 678h40v1H336zM465 678h39v1H465zM607 678h40v1H607zM751 678h40v1H751zM879 678h40v1H879zM336 679h40v1H336zM465 679h39v1H465zM607 679h40v1H607zM751 679h40v1H751zM879 679h40v1H879zM336 680h40v1H336zM465 680h39v1H465zM607 680h40v1H607zM751 680h40v1H751zM879 680h40v1H879zM336 681h40v1H336zM465 681h39v1H465zM607 681h40v1H607zM751 681h40v1H751zM879 681h40v1H879zM336 682h40v1H336zM465 682h39v1H465zM607 682h40v1H607zM751 682h40v1H751zM879 682h40v1H879zM336 683h40v1H336zM465 683h39v1H465zM607 683h40v1H607zM751 683h40v1H751zM879 683h40v1H879zM336 684h40v1H336zM465 684h39v1H465zM607 684h40v1H607zM751 684h40v1H751zM879 684h40v1H879zM336 685h40v1H336zM465 685h39v1H465zM607 685h40v1H607zM751 685h40v1H751zM879 685h40v1H879zM336 686h40v1H336zM465 686h39v1H465zM607 686h40v1H607zM751 686h40v1H751zM879 686h40v1H879zM336 687h40v1H336zM465 687h39v1H465zM607 687h40v1H607zM751 687h40v1H751zM879 687h40v1H879zM336 688h40v1H336zM465 688h39v1H465zM607 688h40v1H607zM751 688h40v1H751zM879 688h40v1H879zM336 689h40v1H336zM465 689h39v1H465zM607 689h40v1H607zM751 689h40v1H751zM879 689h40v1H879zM336 690h40v1H336zM465 690h39v1H465zM607 690h40v1H607zM751 690h40v1H751zM879 690h40v1H879zM336 691h40v1H336zM465 691h39v1H465zM607 691h40v1H607zM751 691h40v1H751zM879 691h40v1H879zM336 692h40v1H336zM465 692h39v1H465zM607 692h40v1H607zM751 692h40v1H751zM879 692h40v1H879zM336 693h40v1H336zM465 693h39v1H465zM607 693h40v1H607zM751 693h40v1H751zM879 693h40v1H879zM336 694h40v1H336zM465 694h39v1H465zM607 694h40v1H607zM751 694h40v1H751zM879 694h40v1H879zM336 695h40v1H336zM465 695h39v1H465zM607 695h40v1H607zM751 695h40v1H751zM879 695h40v1H879zM336 696h40v1H336zM464 696h40v1H464zM607 696h40v1H607zM751 696h40v1H751zM879 696h40v1H879zM336 697h40v1H336zM464 697h40v1H464zM607 697h40v1H607zM751 697h40v1H751zM879 697h40v1H879zM336 698h40v1H336zM464 698h40v1H464zM607 698h40v1H607zM751 698h40v1H751zM879 698h40v1H879zM336 699h40v1H336zM462 699h1v1H462zM464 699h41v1H464zM606 699h42v1H606zM750 699h41v1H750zM878 699h41v1H878zM336 700h583v1H336zM336 701h583v1H336zM336 702h583v1H336zM336 703h583v1H336zM336 704h583v1H336zM336 705h583v1H336zM336 706h583v1H336zM336 707h583v1H336zM336 708h583v1H336zM336 709h583v1H336zM336 710h583v1H336zM336 711h583v1H336zM336 712h583v1H336zM336 713h583v1H336zM336 714h583v1H336zM336 715h583v1H336zM336 716h583v1H336zM336 717h583v1H336zM336 718h583v1H336zM336 719h583v1H336zM336 720h583v1H336zM336 721h583v1H336zM336 722h583v1H336zM336 723h583v1H336zM336 724h583v1H336zM336 725h583v1H336zM336 726h583v1H336zM336 727h583v1H336zM336 728h583v1H336zM336 729h583v1H336zM336 730h583v1H336zM336 731h583v1H336zM336 732h583v1H336zM336 733h583v1H336zM336 734h583v1H336zM336 735h583v1H336zM336 736h583v1H336zM336 737h583v1H336zM336 738h583v1H336zM336 739h40v1H336zM879 739h40v1H879zM336 740h40v1H336zM879 740h40v1H879zM336 741h40v1H336zM879 741h40v1H879zM336 742h40v1H336zM879 742h40v1H879zM336 743h40v1H336zM879 743h40v1H879zM336 744h40v1H336zM879 744h40v1H879zM336 745h40v1H336zM879 745h40v1H879zM336 746h40v1H336zM879 746h40v1H879zM336 747h40v1H336zM879 747h40v1H879zM336 748h40v1H336zM879 748h40v1H879zM336 749h40v1H336zM879 749h40v1H879zM336 750h40v1H336zM879 750h40v1H879zM336 751h40v1H336zM879 751h40v1H879zM336 752h40v1H336zM879 752h40v1H879zM336 753h40v1H336zM879 753h40v1H879zM336 754h40v1H336zM879 754h40v1H879zM336 755h40v1H336zM879 755h40v1H879zM336 756h40v1H336zM879 756h40v1H879zM336 757h40v1H336zM879 757h40v1H879zM336 758h40v1H336zM879 758h40v1H879zM336 759h40v1H336zM879 759h40v1H879zM336 760h40v1H336zM879 760h40v1H879zM336 761h40v1H336zM879 761h40v1H879zM336 762h40v1H336zM879 762h40v1H879zM336 763h40v1H336zM879 763h40v1H879zM336 764h40v1H336zM879 764h40v1H879zM336 765h40v1H336zM879 765h40v1H879zM336 766h40v1H336zM879 766h40v1H879zM336 767h40v1H336zM879 767h40v1H879zM336 768h40v1H336zM879 768h40v1H879zM336 769h40v1H336zM879 769h40v1H879zM336 770h40v1H336zM879 770h40v1H879zM336 771h40v1H336zM879 771h40v1H879zM336 772h40v1H336zM879 772h40v1H879zM336 773h40v1H336zM879 773h40v1H879zM336 774h40v1H336zM879 774h40v1H879zM336 775h40v1H336zM879 775h40v1H879zM336 776h40v1H336zM879 776h40v1H879zM336 777h40v1H336zM465 777h40v1H465zM879 777h40v1H879zM336 778h40v1H336zM465 778h40v1H465zM879 778h40v1H879zM336 779h40v1H336zM465 779h40v1H465zM879 779h40v1H879zM336 780h40v1H336zM465 780h40v1H465zM879 780h40v1H879zM336 781h40v1H336zM465 781h40v1H465zM879 781h40v1H879zM336 782h40v1H336zM465 782h40v1H465zM879 782h40v1H879zM336 783h40v1H336zM465 783h40v1H465zM879 783h40v1H879zM336 784h40v1H336zM465 784h40v1H465zM879 784h40v1H879zM336 785h40v1H336zM465 785h40v1H465zM879 785h40v1H879zM336 786h40v1H336zM465 786h40v1H465zM879 786h40v1H879zM336 787h40v1H336zM465 787h40v1H465zM879 787h40v1H879zM336 788h40v1H336zM465 788h40v1H465zM879 788h40v1H879zM336 789h40v1H336zM465 789h40v1H465zM879 789h40v1H879zM336 790h40v1H336zM465 790h40v1H465zM879 790h40v1H879zM336 791h40v1H336zM465 791h40v1H465zM879 791h40v1H879zM336 792h40v1H336zM465 792h40v1H465zM879 792h40v1H879zM336 793h40v1H336zM465 793h40v1H465zM879 793h40v1H879zM336 794h40v1H336zM465 794h40v1H465zM879 794h40v1H879zM336 795h40v1H336zM465 795h40v1H465zM879 795h40v1H879zM336 796h40v1H336zM465 796h40v1H465zM879 796h40v1H879zM336 797h40v1H336zM465 797h40v1H465zM879 797h40v1H879zM336 798h40v1H336zM465 798h40v1H465zM879 798h40v1H879zM336 799h40v1H336zM465 799h40v1H465zM879 799h40v1H879zM336 800h40v1H336zM465 800h40v1H465zM879 800h40v1H879zM336 801h40v1H336zM465 801h40v1H465zM879 801h40v1H879zM336 802h40v1H336zM465 802h40v1H465zM879 802h40v1H879zM336 803h40v1H336zM465 803h40v1H465zM879 803h40v1H879zM336 804h40v1H336zM465 804h40v1H465zM879 804h40v1H879zM336 805h40v1H336zM465 805h40v1H465zM879 805h40v1H879zM336 806h40v1H336zM465 806h40v1H465zM879 806h40v1H879zM336 807h40v1H336zM465 807h40v1H465zM879 807h40v1H879zM336 808h40v1H336zM465 808h40v1H465zM879 808h40v1H879zM336 809h40v1H336zM465 809h40v1H465zM879 809h40v1H879zM336 810h40v1H336zM465 810h40v1H465zM879 810h40v1H879zM336 811h40v1H336zM465 811h76v1H465zM879 811h40v1H879zM336 812h40v1H336zM465 812h77v1H465zM879 812h40v1H879zM336 813h40v1H336zM465 813h77v1H465zM879 813h40v1H879zM336 814h40v1H336zM465 814h77v1H465zM879 814h40v1H879zM336 815h40v1H336zM465 815h77v1H465zM879 815h40v1H879zM336 816h40v1H336zM501 816h41v1H501zM879 816h40v1H879zM336 817h40v1H336zM501 817h41v1H501zM879 817h40v1H879zM336 818h40v1H336zM501 818h41v1H501zM879 818h40v1H879zM336 819h40v1H336zM501 819h41v1H501zM879 819h40v1H879zM336 820h40v1H336zM501 820h41v1H501zM879 820h40v1H879zM336 821h40v1H336zM501 821h41v1H501zM879 821h40v1H879zM336 822h40v1H336zM501 822h41v1H501zM879 822h40v1H879zM336 823h40v1H336zM501 823h41v1H501zM879 823h40v1H879zM336 824h40v1H336zM501 824h41v1H501zM879 824h40v1H879zM336 825h40v1H336zM501 825h41v1H501zM879 825h40v1H879zM336 826h40v1H336zM501 826h41v1H501zM879 826h40v1H879zM336 827h40v1H336zM501 827h41v1H501zM879 827h40v1H879zM336 828h40v1H336zM501 828h41v1H501zM879 828h40v1H879zM336 829h40v1H336zM501 829h41v1H501zM879 829h40v1H879zM336 830h40v1H336zM501 830h41v1H501zM879 830h40v1H879zM336 831h40v1H336zM501 831h41v1H501zM879 831h40v1H879zM336 832h40v1H336zM501 832h41v1H501zM879 832h40v1H879zM336 833h40v1H336zM501 833h41v1H501zM879 833h40v1H879zM336 834h40v1H336zM501 834h41v1H501zM879 834h40v1H879zM336 835h40v1H336zM501 835h41v1H501zM879 835h40v1H879zM336 836h40v1H336zM501 836h41v1H501zM879 836h40v1H879zM336 837h40v1H336zM501 837h41v1H501zM879 837h40v1H879zM336 838h40v1H336zM501 838h41v1H501zM879 838h40v1H879zM336 839h40v1H336zM501 839h41v1H501zM879 839h40v1H879zM336 840h40v1H336zM501 840h41v1H501zM879 840h40v1H879zM336 841h40v1H336zM501 841h41v1H501zM879 841h40v1H879zM336 842h40v1H336zM501 842h74v1H501zM879 842h40v1H879zM336 843h40v1H336zM501 843h74v1H501zM879 843h40v1H879zM336 844h40v1H336zM501 844h74v1H501zM879 844h40v1H879zM336 845h40v1H336zM501 845h74v1H501zM879 845h40v1H879zM336 846h40v1H336zM501 846h74v1H501zM879 846h40v1H879zM336 847h40v1H336zM501 847h74v1H501zM879 847h40v1H879zM336 848h40v1H336zM501 848h74v1H501zM879 848h40v1H879zM336 849h40v1H336zM501 849h74v1H501zM879 849h40v1H879zM336 850h40v1H336zM501 850h74v1H501zM879 850h40v1H879zM336 851h40v1H336zM502 851h1v1H502zM510 851h19v1H510zM535 851h40v1H535zM879 851h40v1H879zM336 852h40v1H336zM537 852h38v1H537zM879 852h40v1H879zM336 853h40v1H336zM537 853h38v1H537zM879 853h40v1H879zM336 854h40v1H336zM537 854h38v1H537zM879 854h40v1H879zM336 855h40v1H336zM537 855h39v1H537zM879 855h40v1H879zM336 856h40v1H336zM537 856h39v1H537zM879 856h40v1H879zM336 857h40v1H336zM537 857h39v1H537zM879 857h40v1H879zM336 858h40v1H336zM537 858h38v1H537zM879 858h40v1H879zM336 859h40v1H336zM537 859h38v1H537zM879 859h40v1H879zM336 860h40v1H336zM537 860h38v1H537zM879 860h40v1H879zM336 861h40v1H336zM537 861h38v1H537zM879 861h40v1H879zM336 862h40v1H336zM537 862h38v1H537zM879 862h40v1H879zM336 863h40v1H336zM537 863h38v1H537zM879 863h40v1H879zM336 864h40v1H336zM537 864h38v1H537zM879 864h40v1H879zM336 865h40v1H336zM537 865h38v1H537zM879 865h40v1H879zM336 866h40v1H336zM537 866h38v1H537zM879 866h40v1H879zM336 867h40v1H336zM537 867h38v1H537zM879 867h40v1H879zM336 868h40v1H336zM537 868h38v1H537zM879 868h40v1H879zM336 869h40v1H336zM537 869h38v1H537zM879 869h40v1H879zM336 870h40v1H336zM537 870h38v1H537zM879 870h40v1H879zM336 871h40v1H336zM537 871h39v1H537zM879 871h40v1H879zM336 872h40v1H336zM537 872h71v1H537zM879 872h40v1H879zM336 873h40v1H336zM537 873h71v1H537zM879 873h40v1H879zM336 874h40v1H336zM537 874h71v1H537zM879 874h40v1H879zM336 875h40v1H336zM537 875h71v1H537zM879 875h40v1H879zM336 876h40v1H336zM537 876h71v1H537zM879 876h40v1H879zM336 877h40v1H336zM537 877h71v1H537zM879 877h40v1H879zM336 878h40v1H336zM537 878h71v1H537zM879 878h40v1H879zM336 879h40v1H336zM537 879h71v1H537zM879 879h40v1H879zM336 880h40v1H336zM537 880h71v1H537zM879 880h40v1H879zM336 881h40v1H336zM537 881h71v1H537zM879 881h40v1H879zM336 882h40v1H336zM537 882h71v1H537zM879 882h40v1H879zM336 883h40v1H336zM537 883h71v1H537zM879 883h40v1H879zM336 884h40v1H336zM537 884h71v1H537zM879 884h40v1H879zM336 885h40v1H336zM537 885h71v1H537zM879 885h40v1H879zM336 886h40v1H336zM537 886h71v1H537zM879 886h40v1H879zM336 887h40v1H336zM537 887h71v1H537zM879 887h40v1H879zM336 888h40v1H336zM537 888h71v1H537zM879 888h40v1H879zM336 889h40v1H336zM537 889h71v1H537zM879 889h40v1H879zM336 890h40v1H336zM537 890h71v1H537zM879 890h40v1H879zM336 891h40v1H336zM537 891h71v1H537zM879 891h40v1H879zM336 892h40v1H336zM537 892h71v1H537zM879 892h40v1H879zM336 893h40v1H336zM537 893h71v1H537zM879 893h40v1H879zM336 894h40v1H336zM537 894h71v1H537zM879 894h40v1H879zM336 895h40v1H336zM537 895h71v1H537zM879 895h40v1H879zM336 896h40v1H336zM537 896h71v1H537zM879 896h40v1H879zM336 897h40v1H336zM537 897h71v1H537zM879 897h40v1H879zM336 898h40v1H336zM537 898h71v1H537zM879 898h40v1H879zM336 899h40v1H336zM537 899h71v1H537zM879 899h40v1H879zM336 900h40v1H336zM537 900h71v1H537zM879 900h40v1H879zM336 901h40v1H336zM537 901h71v1H537zM879 901h40v1H879zM336 902h40v1H336zM537 902h71v1H537zM879 902h40v1H879zM336 903h40v1H336zM537 903h71v1H537zM879 903h40v1H879zM336 904h40v1H336zM537 904h71v1H537zM879 904h40v1H879zM336 905h40v1H336zM537 905h71v1H537zM879 905h40v1H879zM336 906h40v1H336zM502 906h106v1H502zM879 906h40v1H879zM336 907h40v1H336zM501 907h107v1H501zM879 907h40v1H879zM336 908h40v1H336zM501 908h74v1H501zM879 908h40v1H879zM336 909h40v1H336zM501 909h74v1H501zM879 909h40v1H879zM336 910h40v1H336zM501 910h74v1H501zM879 910h40v1H879zM336 911h40v1H336zM501 911h74v1H501zM879 911h40v1H879zM336 912h40v1H336zM501 912h74v1H501zM879 912h40v1H879zM336 913h40v1H336zM501 913h74v1H501zM879 913h40v1H879zM336 914h40v1H336zM501 914h74v1H501zM879 914h40v1H879zM336 915h40v1H336zM501 915h74v1H501zM879 915h40v1H879zM336 916h40v1H336zM501 916h74v1H501zM879 916h40v1H879zM336 917h40v1H336zM501 917h74v1H501zM879 917h40v1H879zM336 918h40v1H336zM501 918h74v1H501zM879 918h40v1H879zM336 919h40v1H336zM501 919h74v1H501zM879 919h40v1H879zM336 920h40v1H336zM501 920h74v1H501zM879 920h40v1H879zM336 921h40v1H336zM501 921h74v1H501zM879 921h40v1H879zM336 922h40v1H336zM501 922h74v1H501zM879 922h40v1H879zM336 923h40v1H336zM501 923h74v1H501zM879 923h40v1H879zM336 924h40v1H336zM501 924h74v1H501zM879 924h40v1H879zM336 925h40v1H336zM501 925h74v1H501zM879 925h40v1H879zM336 926h40v1H336zM501 926h74v1H501zM879 926h40v1H879zM336 927h40v1H336zM501 927h74v1H501zM879 927h40v1H879zM336 928h40v1H336zM501 928h74v1H501zM879 928h40v1H879zM336 929h40v1H336zM501 929h74v1H501zM879 929h40v1H879zM336 930h40v1H336zM501 930h74v1H501zM879 930h40v1H879zM336 931h40v1H336zM501 931h74v1H501zM879 931h40v1H879zM336 932h40v1H336zM501 932h74v1H501zM879 932h40v1H879zM336 933h40v1H336zM501 933h74v1H501zM879 933h40v1H879zM336 934h40v1H336zM501 934h74v1H501zM879 934h40v1H879zM336 935h40v1H336zM501 935h74v1H501zM879 935h40v1H879zM336 936h40v1H336zM501 936h74v1H501zM879 936h40v1H879zM336 937h40v1H336zM465 937h77v1H465zM879 937h40v1H879zM336 938h40v1H336zM465 938h77v1H465zM879 938h40v1H879zM336 939h40v1H336zM465 939h77v1H465zM879 939h40v1H879zM336 940h40v1H336zM465 940h77v1H465zM644 940h112v1H644zM879 940h40v1H879zM336 941h40v1H336zM465 941h77v1H465zM644 941h113v1H644zM879 941h40v1H879zM336 942h40v1H336zM465 942h77v1H465zM644 942h113v1H644zM879 942h40v1H879zM336 943h40v1H336zM465 943h77v1H465zM644 943h113v1H644zM879 943h40v1H879zM336 944h40v1H336zM465 944h77v1H465zM644 944h113v1H644zM879 944h40v1H879zM336 945h40v1H336zM465 945h77v1H465zM644 945h113v1H644zM879 945h40v1H879zM336 946h40v1H336zM465 946h77v1H465zM644 946h113v1H644zM879 946h40v1H879zM336 947h40v1H336zM465 947h77v1H465zM644 947h113v1H644zM879 947h40v1H879zM336 948h40v1H336zM465 948h77v1H465zM644 948h113v1H644zM879 948h40v1H879zM336 949h40v1H336zM465 949h77v1H465zM644 949h113v1H644zM879 949h40v1H879zM336 950h40v1H336zM465 950h77v1H465zM644 950h113v1H644zM879 950h40v1H879zM336 951h40v1H336zM465 951h77v1H465zM644 951h113v1H644zM879 951h40v1H879zM336 952h40v1H336zM465 952h77v1H465zM644 952h113v1H644zM879 952h40v1H879zM336 953h40v1H336zM465 953h77v1H465zM644 953h113v1H644zM879 953h40v1H879zM336 954h40v1H336zM465 954h77v1H465zM644 954h113v1H644zM879 954h40v1H879zM336 955h40v1H336zM465 955h77v1H465zM644 955h113v1H644zM879 955h40v1H879zM336 956h40v1H336zM465 956h77v1H465zM644 956h113v1H644zM879 956h40v1H879zM336 957h40v1H336zM465 957h77v1H465zM644 957h113v1H644zM879 957h40v1H879zM336 958h40v1H336zM465 958h77v1H465zM644 958h113v1H644zM879 958h40v1H879zM336 959h40v1H336zM465 959h77v1H465zM644 959h113v1H644zM879 959h40v1H879zM336 960h40v1H336zM465 960h77v1H465zM644 960h113v1H644zM879 960h40v1H879zM336 961h40v1H336zM465 961h77v1H465zM644 961h113v1H644zM879 961h40v1H879zM336 962h40v1H336zM465 962h77v1H465zM644 962h113v1H644zM879 962h40v1H879zM336 963h40v1H336zM465 963h77v1H465zM644 963h113v1H644zM879 963h40v1H879zM336 964h40v1H336zM465 964h77v1H465zM644 964h113v1H644zM879 964h40v1H879zM336 965h40v1H336zM465 965h73v1H465zM540 965h1v1H540zM644 965h113v1H644zM879 965h40v1H879zM336 966h40v1H336zM465 966h40v1H465zM644 966h113v1H644zM879 966h40v1H879zM336 967h40v1H336zM465 967h40v1H465zM644 967h113v1H644zM879 967h40v1H879zM336 968h40v1H336zM465 968h40v1H465zM644 968h113v1H644zM879 968h40v1H879zM336 969h40v1H336zM465 969h40v1H465zM644 969h113v1H644zM879 969h40v1H879zM336 970h40v1H336zM465 970h40v1H465zM644 970h113v1H644zM879 970h40v1H879zM336 971h40v1H336zM465 971h40v1H465zM644 971h113v1H644zM879 971h40v1H879zM336 972h40v1H336zM465 972h40v1H465zM644 972h113v1H644zM879 972h40v1H879zM336 973h40v1H336zM465 973h40v1H465zM644 973h113v1H644zM879 973h40v1H879zM336 974h40v1H336zM465 974h40v1H465zM644 974h113v1H644zM879 974h40v1H879zM336 975h40v1H336zM465 975h40v1H465zM644 975h113v1H644zM879 975h40v1H879zM336 976h40v1H336zM465 976h40v1H465zM644 976h113v1H644zM879 976h40v1H879zM336 977h40v1H336zM465 977h40v1H465zM644 977h113v1H644zM879 977h40v1H879zM336 978h40v1H336zM465 978h40v1H465zM644 978h113v1H644zM879 978h40v1H879zM336 979h40v1H336zM465 979h40v1H465zM645 979h17v1H645zM687 979h34v1H687zM737 979h18v1H737zM879 979h40v1H879zM336 980h40v1H336zM465 980h40v1H465zM879 980h40v1H879zM336 981h40v1H336zM465 981h40v1H465zM879 981h40v1H879zM336 982h40v1H336zM465 982h40v1H465zM879 982h40v1H879zM336 983h40v1H336zM465 983h40v1H465zM879 983h40v1H879zM336 984h40v1H336zM465 984h40v1H465zM879 984h40v1H879zM336 985h40v1H336zM465 985h40v1H465zM879 985h40v1H879zM336 986h40v1H336zM879 986h40v1H879zM336 987h40v1H336zM879 987h40v1H879zM336 988h40v1H336zM879 988h40v1H879zM336 989h40v1H336zM879 989h40v1H879zM336 990h40v1H336zM879 990h40v1H879zM336 991h40v1H336zM879 991h40v1H879zM336 992h40v1H336zM879 992h40v1H879zM336 993h40v1H336zM879 993h40v1H879zM336 994h40v1H336zM879 994h40v1H879zM336 995h40v1H336zM879 995h40v1H879zM336 996h40v1H336zM879 996h40v1H879zM336 997h40v1H336zM879 997h40v1H879zM336 998h40v1H336zM879 998h40v1H879zM336 999h40v1H336zM879 999h40v1H879zM336 1000h40v1H336zM879 1000h40v1H879zM336 1001h40v1H336zM879 1001h40v1H879zM336 1002h40v1H336zM879 1002h40v1H879zM336 1003h40v1H336zM879 1003h40v1H879zM336 1004h40v1H336zM879 1004h40v1H879zM336 1005h40v1H336zM879 1005h40v1H879zM336 1006h40v1H336zM879 1006h40v1H879zM336 1007h40v1H336zM879 1007h40v1H879zM336 1008h40v1H336zM879 1008h40v1H879zM336 1009h40v1H336zM879 1009h40v1H879zM336 1010h40v1H336zM879 1010h40v1H879zM336 1011h40v1H336zM879 1011h40v1H879zM336 1012h40v1H336zM879 1012h40v1H879zM336 1013h40v1H336zM879 1013h40v1H879zM336 1014h40v1H336zM879 1014h40v1H879zM336 1015h40v1H336zM879 1015h40v1H879zM336 1016h40v1H336zM879 1016h40v1H879zM336 1017h40v1H336zM878 1017h41v1H878zM336 1018h583v1H336zM336 1019h583v1H336zM336 1020h583v1H336zM336 1021h583v1H336zM336 1022h583v1H336zM336 1023h583v1H336zM336 1024h583v1H336zM336 1025h583v1H336zM336 1026h583v1H336zM336 1027h583v1H336zM336 1028h583v1H336zM336 1029h583v1H336zM336 1030h583v1H336zM336 1031h583v1H336zM336 1032h583v1H336zM336 1033h583v1H336zM336 1034h583v1H336zM336 1035h583v1H336zM336 1036h583v1H336zM336 1037h583v1H336zM336 1038h583v1H336zM336 1039h583v1H336zM336 1040h583v1H336zM336 1041h583v1H336zM336 1042h583v1H336zM336 1043h583v1H336zM336 1044h583v1H336zM336 1045h583v1H336zM336 1046h583v1H336zM336 1047h583v1H336zM336 1048h583v1H336zM336 1049h583v1H336zM336 1050h583v1H336zM336 1051h583v1H336zM336 1052h583v1H336zM336 1053h583v1H336zM336 1054h583v1H336zM336 1055h583v1H336zM336 1056h583v1H336z" fill="#000"/>
</svg>