<svg xmlns="http://www.w3.org/2000/svg" viewBox="0 -55 256 256">
  <path fill="#000" d="M72.2009141 0C112.076502 0 144.399375 32.5485469 144.399375 72.6964154 144.399375 112.844284 112.074049 145.390378 72.2009141 145.390378 32.327779 145.390378 0 112.844284 0 72.6964154 0 32.5485469 32.325326 0 72.2009141 0ZM187.500628 4.25836743C207.438422 4.25836743 223.601085 34.8960455 223.601085 72.6964154h.002453c0 37.7905576-16.162663 68.4380476-36.100457 68.4380476-19.937794 0-36.100457-30.64749-36.100457-68.4380476 0-37.790558 16.16021-68.43804797 36.098004-68.43804797ZM243.303393 11.3867175C250.314 11.3867175 256 38.835526 256 72.6964154c0 33.8510776-5.683547 61.3096976-12.696607 61.3096976-7.01306 0-12.694154-27.451261-12.694154-61.3096976 0-33.8584364 5.683547-61.3096979 12.694154-61.3096979Z"/>
</svg>
