<svg xmlns="http://www.w3.org/2000/svg" x="0px" y="0px" width="24" height="24" viewBox="0 0 24 24">
  <path d="M30,3C23.373,3,18,8.373,18,15c0,5.623,5.372,10.328,12.092,11.63 C14.036,26.468,14,26.28,14,26.047v-2.051c-1.487,0-2.603,0-2.808,0c-1.621,0-3.151-0.353-3.605-1.009 c-0.793-0.729-0.861-1.844-2.635-2.526c-0.589-0.227-1.069-0.486-0.435-0.451c1.215,0.174,2.225,0.596,2.805,1.222 c1.128,0.627,1.353,0.769,2.246,0.769c1.033,0,1.981-0.025,2.591-0.121c0.658-0.833,1.425-1.6,2.288-1.962c-4.796-0.411-6.703-2.399-6.703-5.098c0-1.162,0.495-2.286,1.236-3.233 C22.053,10.647,21.706,8.73,22.435,8c1.5,0,2.485,1.166,2.746,1.481c1.477,0.731,1.141,2.656,0.702,3.594 c1.676,0.945,2.178,2.066,2.178,3.226c0,2.697-2.304,4.684-6.7,5.097 C25.199,20.49,26,22.1,26,23.313v2.734c0,0.104-0.023,0.179-0.035,0.268C31.641,24.676,35,20.236,35,15C35,8.373,29.627,3,15,3z"/>
</svg>