<svg xmlns="http://www.w3.org/2000/svg" width="24" height="24" viewBox="0 0 24 24" fill="none" stroke="currentColor" stroke-width="3" stroke-linecap="round" stroke-linejoin="round">
  <path d="M12 2C6.48 2 2 6.48 2 12s4.48 10 10 10 10-4.48 10-10S17.52 2 12 2zm0 18c-5.52 0-10-4.48-10-10 0-5.52 4.48-10 10-10 5.52 0 10 4.48 10 10 0 5.52-4.48 10-10 10zm-1.03-14.81a3.5 3.5 0 0 0 0 7h2.06c.12.73.36 1.39.7 1.97.12.18.27.35.44.5-.6.65-1.27 1.27-1.97 1.86-.2.17-.41.32-.63.46l-.36.24c-.14.09-.27.19-.41.28-.15.1-.31.19-.46.28-.6.37-1.23.72-1.89 1.04a3.47 3.47 0 0 0-1.33 5.81 3.47 3.47 0 0 0 4.8-.48 3.47 3.47 0 0 0-.37-4.74c.2-.29.41-.57.65-.82.04-.04.09-.08.14-.12.08-.07.16-.14.25-.2.09-.07.19-.13.29-.18.11-.06.22-.11.33-.15.12-.04.24-.08.37-.11.13-.03.26-.06.39-.08.52-.09 1.05-.17 1.58-.24.25-.03.51-.06.77-.08.26-.02.52-.05.78-.07.53-.04 1.06-.07 1.59-.09.64-.03 1.28-.05 1.93-.05s1.29.02 1.94.05c.26.02.52.05.78.07.26.02.52.05.77.08.53.07 1.06.15 1.58.24.13.02.25.06.37.11.11.05.21.1.29.18.09.07.17.14.25.21.04.04.09.08.13.12.25.25.46.53.65.82a3.47 3.47 0 0 0-.48 4.8 3.47 3.47 0 0 0 5.81-1.33 3.47 3.47 0 0 0-1.04-1.89c-.1-.15-.21-.3-.33-.45l-.14-.23c-.18-.29-.37-.57-.57-.85-.08-.11-.17-.22-.26-.32-.12-.13-.25-.25-.37-.37-.14-.14-.28-.28-.42-.41l-.22-.2c-.17-.16-.33-.32-.5-.47-.2-.18-.4-.37-.61-.55-.13-.12-.26-.24-.4-.35-.22-.17-.45-.34-.67-.49l-.35-.22a3.5 3.5 0 0 0-2.74-1.19h-1.84z"></path>
</svg>